<?xml version="1.0" encoding="UTF-8"?>
<svg xmlns="http://www.w3.org/2000/svg" style="display: none;">
    <symbol id="home" viewBox="0 0 576 512">
        <path d="M511.8 287.6L512.5 447.7C512.5 450.5 512.3 453.1 512 455.8V472C512 494.1 494.1 512 472 512H456C454.9 512 453.8 511.1 452.7 511.9C451.3 511.1 449.9 512 448.5 512H392C369.9 512 352 494.1 352 472V384C352 366.3 337.7 352 320 352H256C238.3 352 224 366.3 224 384V472C224 494.1 206.1 512 184 512H128.1C126.6 512 125.1 511.9 123.6 511.8C122.4 511.9 121.2 512 120 512H104C81.91 512 64 494.1 64 472V360C64 359.1 64.03 358.1 64.09 357.2V287.6H32.05C14.02 287.6 0 273.5 0 255.5C0 246.5 3.004 238.5 10.01 231.5L266.4 8.016C273.4 1.002 281.4 0 288.4 0C295.4 0 303.4 2.004 309.5 7.014L416 100.7V64C416 46.33 430.3 32 448 32H480C497.7 32 512 46.33 512 64V185L564.8 231.5C572.8 238.5 576.9 246.5 575.8 255.5C575.8 273.5 560.8 287.6 543.8 287.6L511.8 287.6z"></path>
    </symbol>
    <symbol id="server" viewBox="0 0 512 512">
        <path d="M480 288H32c-17.62 0-32 14.38-32 32v128c0 17.62 14.38 32 32 32h448c17.62 0 32-14.38 32-32v-128C512 302.4 497.6 288 480 288zM352 408c-13.25 0-24-10.75-24-24s10.75-24 24-24s24 10.75 24 24S365.3 408 352 408zM416 408c-13.25 0-24-10.75-24-24s10.75-24 24-24s24 10.75 24 24S429.3 408 416 408zM480 32H32C14.38 32 0 46.38 0 64v128c0 17.62 14.38 32 32 32h448c17.62 0 32-14.38 32-32V64C512 46.38 497.6 32 480 32zM352 152c-13.25 0-24-10.75-24-24S338.8 104 352 104S376 114.8 376 128S365.3 152 352 152zM416 152c-13.25 0-24-10.75-24-24S402.8 104 416 104S440 114.8 440 128S429.3 152 416 152z"></path>
    </symbol>
    <symbol id="tv" viewBox="0 0 640 512">
        <path d="M512 448H127.1C110.3 448 96 462.3 96 479.1S110.3 512 127.1 512h384C529.7 512 544 497.7 544 480S529.7 448 512 448zM592 0h-544C21.5 0 0 21.5 0 48v320C0 394.5 21.5 416 48 416h544c26.5 0 48-21.5 48-48v-320C640 21.5 618.5 0 592 0zM576 352H64v-288h512V352z"></path>
    </symbol>
    <symbol id="music" viewBox="0 0 512 512">
        <path d="M511.1 367.1c0 44.18-42.98 80-95.1 80s-95.1-35.82-95.1-79.1c0-44.18 42.98-79.1 95.1-79.1c11.28 0 21.95 1.92 32.01 4.898V148.1L192 224l-.0023 208.1C191.1 476.2 149 512 95.1 512S0 476.2 0 432c0-44.18 42.98-79.1 95.1-79.1c11.28 0 21.95 1.92 32 4.898V126.5c0-12.97 10.06-26.63 22.41-30.52l319.1-94.49C472.1 .6615 477.3 0 480 0c17.66 0 31.97 14.34 32 31.99L511.1 367.1z"></path>
    </symbol>
    <symbol id="gear" viewBox="0 0 512 512">
        <path d="M499.5 332c0-5.66-3.112-11.13-8.203-14.07l-46.61-26.91C446.8 279.6 448 267.1 448 256s-1.242-23.65-3.34-35.02l46.61-26.91c5.092-2.941 8.203-8.411 8.203-14.07c0-14.1-41.98-99.04-63.86-99.04c-2.832 0-5.688 .7266-8.246 2.203l-46.72 26.98C362.9 94.98 342.4 83.1 320 75.16V21.28c0-7.523-5.162-14.28-12.53-15.82C290.8 1.977 273.7 0 256 0s-34.85 1.977-51.48 5.461C197.2 7.004 192 13.76 192 21.28v53.88C169.6 83.1 149.1 94.98 131.4 110.1L84.63 83.16C82.08 81.68 79.22 80.95 76.39 80.95c-19.72 0-63.86 81.95-63.86 99.04c0 5.66 3.112 11.13 8.203 14.07l46.61 26.91C65.24 232.4 64 244 64 256s1.242 23.65 3.34 35.02l-46.61 26.91c-5.092 2.941-8.203 8.411-8.203 14.07c0 14.1 41.98 99.04 63.86 99.04c2.832 0 5.688-.7266 8.246-2.203l46.72-26.98C149.1 417 169.6 428.9 192 436.8v53.88c0 7.523 5.162 14.28 12.53 15.82C221.2 510 238.3 512 255.1 512s34.85-1.977 51.48-5.461C314.8 504.1 320 498.2 320 490.7v-53.88c22.42-7.938 42.93-19.82 60.65-34.97l46.72 26.98c2.557 1.477 5.416 2.203 8.246 2.203C455.3 431 499.5 349.1 499.5 332zM256 336c-44.11 0-80-35.89-80-80S211.9 176 256 176s80 35.89 80 80S300.1 336 256 336z"></path>
    </symbol>
    <symbol id="chevron-bar-left" stroke="currentColor" viewBox="0 0 16 16">
        <path fillRule="evenodd" d="M11.854 3.646a.5.5 0 0 1 0 .708L8.207 8l3.647 3.646a.5.5 0 0 1-.708.708l-4-4a.5.5 0 0 1 0-.708l4-4a.5.5 0 0 1 .708 0zM4.5 1a.5.5 0 0 0-.5.5v13a.5.5 0 0 0 1 0v-13a.5.5 0 0 0-.5-.5z" />
    </symbol>
    <symbol id="chevron-bar-right" stroke="currentColor" viewBox="0 0 16 16">
        <path fillRule="evenodd" d="M4.146 3.646a.5.5 0 0 0 0 .708L7.793 8l-3.647 3.646a.5.5 0 0 0 .708.708l4-4a.5.5 0 0 0 0-.708l-4-4a.5.5 0 0 0-.708 0zM11.5 1a.5.5 0 0 1 .5.5v13a.5.5 0 0 1-1 0v-13a.5.5 0 0 1 .5-.5z" />
    </symbol>
    <symbol id="chevron-left" stroke="currentColor" viewBox="0 0 16 16">
        <path fillRule="evenodd" d="M11.354 1.646a.5.5 0 0 1 0 .708L5.707 8l5.647 5.646a.5.5 0 0 1-.708.708l-6-6a.5.5 0 0 1 0-.708l6-6a.5.5 0 0 1 .708 0z" />
    </symbol>
    <symbol id="chevron-right" stroke="currentColor" viewBox="0 0 16 16">
        <path fillRule="evenodd" d="M4.646 1.646a.5.5 0 0 1 .708 0l6 6a.5.5 0 0 1 0 .708l-6 6a.5.5 0 0 1-.708-.708L10.293 8 4.646 2.354a.5.5 0 0 1 0-.708z" />
    </symbol>
    <symbol id="download" viewBox="0 0 512 512">
        <path d="M480 352h-133.5l-45.25 45.25C289.2 409.3 273.1 416 256 416s-33.16-6.656-45.25-18.75L165.5 352H32c-17.67 0-32 14.33-32 32v96c0 17.67 14.33 32 32 32h448c17.67 0 32-14.33 32-32v-96C512 366.3 497.7 352 480 352zM432 456c-13.2 0-24-10.8-24-24c0-13.2 10.8-24 24-24s24 10.8 24 24C456 445.2 445.2 456 432 456zM233.4 374.6C239.6 380.9 247.8 384 256 384s16.38-3.125 22.62-9.375l128-128c12.49-12.5 12.49-32.75 0-45.25c-12.5-12.5-32.76-12.5-45.25 0L288 274.8V32c0-17.67-14.33-32-32-32C238.3 0 224 14.33 224 32v242.8L150.6 201.4c-12.49-12.5-32.75-12.5-45.25 0c-12.49 12.5-12.49 32.75 0 45.25L233.4 374.6z"></path>
    </symbol>
    <symbol id="folder" viewBox="0 0 512 512">
        <path d="M464 96h-192l-64-64h-160C21.5 32 0 53.5 0 80V160h512V144C512 117.5 490.5 96 464 96zM0 432C0 458.5 21.5 480 48 480h416c26.5 0 48-21.5 48-48V192H0V432z"></path>
    </symbol>
    <symbol id="folder-open" viewBox="0 0 576 512">
        <path d="M147.8 192H480V144C480 117.5 458.5 96 432 96h-160l-64-64h-160C21.49 32 0 53.49 0 80v328.4l90.54-181.1C101.4 205.6 123.4 192 147.8 192zM543.1 224H147.8C135.7 224 124.6 230.8 119.2 241.7L0 480h447.1c12.12 0 23.2-6.852 28.62-17.69l96-192C583.2 249 567.7 224 543.1 224z"></path>
    </symbol>
    <symbol id="file-lines" viewBox="0 0 384 512">
        <path d="M256 0v128h128L256 0zM224 128L224 0H48C21.49 0 0 21.49 0 48v416C0 490.5 21.49 512 48 512h288c26.51 0 48-21.49 48-48V160h-127.1C238.3 160 224 145.7 224 128zM272 416h-160C103.2 416 96 408.8 96 400C96 391.2 103.2 384 112 384h160c8.836 0 16 7.162 16 16C288 408.8 280.8 416 272 416zM272 352h-160C103.2 352 96 344.8 96 336C96 327.2 103.2 320 112 320h160c8.836 0 16 7.162 16 16C288 344.8 280.8 352 272 352zM288 272C288 280.8 280.8 288 272 288h-160C103.2 288 96 280.8 96 272C96 263.2 103.2 256 112 256h160C280.8 256 288 263.2 288 272z"></path>
    </symbol>
    <symbol id="photo-film" viewBox="0 0 640 512">
        <path d="M352 432c0 8.836-7.164 16-16 16H176c-8.838 0-16-7.164-16-16L160 128H48C21.49 128 .0003 149.5 .0003 176v288c0 26.51 21.49 48 48 48h416c26.51 0 48-21.49 48-48L512 384h-160L352 432zM104 439c0 4.969-4.031 9-9 9h-30c-4.969 0-9-4.031-9-9v-30c0-4.969 4.031-9 9-9h30c4.969 0 9 4.031 9 9V439zM104 335c0 4.969-4.031 9-9 9h-30c-4.969 0-9-4.031-9-9v-30c0-4.969 4.031-9 9-9h30c4.969 0 9 4.031 9 9V335zM104 231c0 4.969-4.031 9-9 9h-30c-4.969 0-9-4.031-9-9v-30C56 196 60.03 192 65 192h30c4.969 0 9 4.031 9 9V231zM408 409c0-4.969 4.031-9 9-9h30c4.969 0 9 4.031 9 9v30c0 4.969-4.031 9-9 9h-30c-4.969 0-9-4.031-9-9V409zM591.1 0H239.1C213.5 0 191.1 21.49 191.1 48v256c0 26.51 21.49 48 48 48h352c26.51 0 48-21.49 48-48v-256C640 21.49 618.5 0 591.1 0zM303.1 64c17.68 0 32 14.33 32 32s-14.32 32-32 32C286.3 128 271.1 113.7 271.1 96S286.3 64 303.1 64zM574.1 279.6C571.3 284.8 565.9 288 560 288H271.1C265.1 288 260.5 284.6 257.7 279.3C255 273.9 255.5 267.4 259.1 262.6l70-96C332.1 162.4 336.9 160 341.1 160c5.11 0 9.914 2.441 12.93 6.574l22.35 30.66l62.74-94.11C442.1 98.67 447.1 96 453.3 96c5.348 0 10.34 2.672 13.31 7.125l106.7 160C576.6 268 576.9 274.3 574.1 279.6z"></path>
    </symbol>
    <symbol id="bookmark" viewBox="0 0 384 512">
        <path d="M384 48V512l-192-112L0 512V48C0 21.5 21.5 0 48 0h288C362.5 0 384 21.5 384 48z"></path>
    </symbol>
    <symbol id="star" viewBox="0 0 576 512">
        <path d="M528.1 171.5L382 150.2 316.7 17.8c-11.7-23.6-45.6-23.9-57.4 0L194 150.2 47.9 171.5c-26.2 3.8-36.7 36.1-17.7 54.6l105.7 103-25 145.5c-4.5 26.3 23.2 46 46.4 33.7L288 439.6l130.7 68.7c23.2 12.2 50.9-7.4 46.4-33.7l-25-145.5 105.7-103c19-18.5 8.5-50.8-17.7-54.6zM388.6 312.3l23.7 138.4L288 385.4l-124.3 65.3 23.7-138.4-100.6-98 139-20.2 62.2-126 62.2 126 139 20.2-100.6 98z"></path>
    </symbol>
    <symbol id="star-solid" viewBox="0 0 576 512">
        <path d="M259.3 17.8L194 150.2 47.9 171.5c-26.2 3.8-36.7 36.1-17.7 54.6l105.7 103-25 145.5c-4.5 26.3 23.2 46 46.4 33.7L288 439.6l130.7 68.7c23.2 12.2 50.9-7.4 46.4-33.7l-25-145.5 105.7-103c19-18.5 8.5-50.8-17.7-54.6L382 150.2 316.7 17.8c-11.7-23.6-45.6-23.9-57.4 0z"></path>
    </symbol>
    <symbol id="heart" viewBox="0 0 512 512">
        <path d="M458.4 64.3C400.6 15.7 311.3 23 256 79.3 200.7 23 111.4 15.6 53.6 64.3-21.6 127.6-10.6 230.8 43 285.5l175.4 178.7c10 10.2 23.4 15.9 37.6 15.9 14.3 0 27.6-5.6 37.6-15.8L469 285.6c53.5-54.7 64.7-157.9-10.6-221.3zm-23.6 187.5L259.4 430.5c-2.4 2.4-4.4 2.4-6.8 0L77.2 251.8c-36.5-37.2-43.9-107.6 7.3-150.7 38.9-32.7 98.9-27.8 136.5 10.5l35 35.7 35-35.7c37.8-38.5 97.8-43.2 136.5-10.6 51.1 43.1 43.5 113.9 7.3 150.8z"></path>
    </symbol>
    <symbol id="heart-solid" viewBox="0 0 512 512">
        <path d="M462.3 62.6C407.5 15.9 326 24.3 275.7 76.2L256 96.5l-19.7-20.3C186.1 24.3 104.5 15.9 49.7 62.6c-62.8 53.6-66.1 149.8-9.9 207.9l193.5 199.8c12.5 12.9 32.8 12.9 45.3 0l193.5-199.8c56.3-58.1 53-154.3-9.8-207.9z"></path>
    </symbol>
    <symbol id="caret-right" viewBox="0 0 256 512">
        <path d="M118.6 105.4l128 127.1C252.9 239.6 256 247.8 256 255.1s-3.125 16.38-9.375 22.63l-128 127.1c-9.156 9.156-22.91 11.9-34.88 6.943S64 396.9 64 383.1V128c0-12.94 7.781-24.62 19.75-29.58S109.5 96.23 118.6 105.4z"></path>
    </symbol>
    <symbol id="list-alt" viewBox="0 0 512 512">
        <path d="M464 480H48c-26.51 0-48-21.49-48-48V80c0-26.51 21.49-48 48-48h416c26.51 0 48 21.49 48 48v352c0 26.51-21.49 48-48 48zM128 120c-22.091 0-40 17.909-40 40s17.909 40 40 40 40-17.909 40-40-17.909-40-40-40zm0 96c-22.091 0-40 17.909-40 40s17.909 40 40 40 40-17.909 40-40-17.909-40-40-40zm0 96c-22.091 0-40 17.909-40 40s17.909 40 40 40 40-17.909 40-40-17.909-40-40-40zm288-136v-32c0-6.627-5.373-12-12-12H204c-6.627 0-12 5.373-12 12v32c0 6.627 5.373 12 12 12h200c6.627 0 12-5.373 12-12zm0 96v-32c0-6.627-5.373-12-12-12H204c-6.627 0-12 5.373-12 12v32c0 6.627 5.373 12 12 12h200c6.627 0 12-5.373 12-12zm0 96v-32c0-6.627-5.373-12-12-12H204c-6.627 0-12 5.373-12 12v32c0 6.627 5.373 12 12 12h200c6.627 0 12-5.373 12-12z"></path>
    </symbol>
    <symbol id="close" viewBox="0 0 16 16">
        <path d="M.293.293a1 1 0 011.414 0L8 6.586 14.293.293a1 1 0 111.414 1.414L9.414 8l6.293 6.293a1 1 0 01-1.414 1.414L8 9.414l-6.293 6.293a1 1 0 01-1.414-1.414L6.586 8 .293 1.707a1 1 0 010-1.414z" />
    </symbol>
    <symbol id="ellipsis-vertical" viewBox="0 0 128 512">
        <path d="M64 360C94.93 360 120 385.1 120 416C120 446.9 94.93 472 64 472C33.07 472 8 446.9 8 416C8 385.1 33.07 360 64 360zM64 200C94.93 200 120 225.1 120 256C120 286.9 94.93 312 64 312C33.07 312 8 286.9 8 256C8 225.1 33.07 200 64 200zM64 152C33.07 152 8 126.9 8 96C8 65.07 33.07 40 64 40C94.93 40 120 65.07 120 96C120 126.9 94.93 152 64 152z"></path>
    </symbol>
    <symbol id="info" viewBox="0 0 192 512">
        <path d="M160 448h-32V224c0-17.69-14.33-32-32-32L32 192c-17.67 0-32 14.31-32 32s14.33 31.1 32 31.1h32v192H32c-17.67 0-32 14.31-32 32s14.33 32 32 32h128c17.67 0 32-14.31 32-32S177.7 448 160 448zM96 128c26.51 0 48-21.49 48-48S122.5 32.01 96 32.01s-48 21.49-48 48S69.49 128 96 128z"></path>
    </symbol>
    <symbol id="upload" viewBox="0 0 512 512">
        <path d="M105.4 182.6c12.5 12.49 32.76 12.5 45.25 .001L224 109.3V352c0 17.67 14.33 32 32 32c17.67 0 32-14.33 32-32V109.3l73.38 73.38c12.49 12.49 32.75 12.49 45.25-.001c12.49-12.49 12.49-32.75 0-45.25l-128-128C272.4 3.125 264.2 0 256 0S239.6 3.125 233.4 9.375L105.4 137.4C92.88 149.9 92.88 170.1 105.4 182.6zM480 352h-160c0 35.35-28.65 64-64 64s-64-28.65-64-64H32c-17.67 0-32 14.33-32 32v96c0 17.67 14.33 32 32 32h448c17.67 0 32-14.33 32-32v-96C512 366.3 497.7 352 480 352zM432 456c-13.2 0-24-10.8-24-24c0-13.2 10.8-24 24-24s24 10.8 24 24C456 445.2 445.2 456 432 456z"></path>
    </symbol>
    <symbol id="poo" viewBox="0 0 512 512">
        <path d="M451.4 369.1C468.8 356 480 335.4 480 312c0-39.75-32.25-72-72-72h-14.12C407.3 228.2 416 211.2 416 191.1c0-35.25-28.75-63.1-64-63.1h-5.875C349.8 117.9 352 107.2 352 95.1c0-53-43-96-96-96c-5.25 0-10.25 .75-15.12 1.5C250.3 14.62 256 30.62 256 47.1c0 44.25-35.75 80-80 80H160c-35.25 0-64 28.75-64 63.1c0 19.25 8.75 36.25 22.12 48H104C64.25 239.1 32 272.3 32 312c0 23.38 11.25 44 28.62 57.13C26.25 374.6 0 404.1 0 440C0 479.8 32.25 512 72 512h368c39.75 0 72-32.25 72-72C512 404.1 485.8 374.6 451.4 369.1zM192 256c17.75 0 32 14.25 32 32s-14.25 32-32 32S160 305.8 160 288S174.3 256 192 256zM351.5 395C340.1 422.9 292.1 448 256 448c-36.99 0-84.98-25.12-95.48-53C158.5 389.8 162.5 384 168.3 384h175.5C349.5 384 353.5 389.8 351.5 395zM320 320c-17.75 0-32-14.25-32-32s14.25-32 32-32s32 14.25 32 32S337.8 320 320 320z"></path>
    </symbol>
    <symbol id="tower-broadcast" viewBox="0 0 576 512">
        <path d="M160.9 59.01C149.3 52.6 134.7 56.76 128.3 68.39C117.6 87.6 112 109.4 112 131.4c0 19.03 4.031 37.44 11.98 54.62c4.047 8.777 12.73 13.93 21.8 13.93c3.375 0 6.797-.7187 10.05-2.219C167.9 192.2 173.1 177.1 167.5 165.9C162.5 155.1 160 143.5 160 131.4c0-13.93 3.547-27.69 10.25-39.81C176.7 80.04 172.5 65.42 160.9 59.01zM62.61 2.363C46.17-4.32 27.58 3.676 20.95 20.02C7.047 54.36 0 90.69 0 127.1C0 165.3 7.047 201.7 20.95 236C25.98 248.5 37.97 256 50.63 256C54.61 256 58.69 255.3 62.61 253.7C79 247 86.91 228.4 80.27 212C69.47 185.3 64 157.1 64 128c0-29.06 5.469-57.3 16.27-83.99C86.91 27.64 79 8.988 62.61 2.363zM555 20.02c-6.609-16.41-25.23-24.31-41.66-17.66c-16.39 6.625-24.3 25.28-17.66 41.65C506.5 70.7 512 98.95 512 128c0 29.06-5.469 57.31-16.27 83.1C489.1 228.4 497 247 513.4 253.7C517.3 255.3 521.4 256 525.4 256c12.66 0 24.64-7.562 29.67-20C568.1 201.7 576 165.3 576 127.1C576 90.69 568.1 54.36 555 20.02zM420.2 58.23c-12.03 5.562-17.28 19.81-11.72 31.84C413.5 100.9 416 112.5 416 124.6c0 13.94-3.547 27.69-10.25 39.81c-6.422 11.59-2.219 26.22 9.375 32.62c3.688 2.031 7.672 3 11.61 3c8.438 0 16.64-4.47 21.02-12.37C458.4 168.4 464 146.6 464 124.6c0-19.03-4.031-37.43-11.98-54.62C446.5 57.89 432.1 52.7 420.2 58.23zM301.8 65.45C260.5 56.78 224 88.13 224 128c0 23.63 12.95 44.04 32 55.12v296.9c0 17.67 14.33 32 32 32s32-14.33 32-32V183.1c23.25-13.54 37.42-40.96 30.03-71.18C344.4 88.91 325 70.31 301.8 65.45z"></path>
    </symbol>
    <symbol id="list" viewBox="0 0 512 512">
        <path d="M88 48C101.3 48 112 58.75 112 72V120C112 133.3 101.3 144 88 144H40C26.75 144 16 133.3 16 120V72C16 58.75 26.75 48 40 48H88zM480 64C497.7 64 512 78.33 512 96C512 113.7 497.7 128 480 128H192C174.3 128 160 113.7 160 96C160 78.33 174.3 64 192 64H480zM480 224C497.7 224 512 238.3 512 256C512 273.7 497.7 288 480 288H192C174.3 288 160 273.7 160 256C160 238.3 174.3 224 192 224H480zM480 384C497.7 384 512 398.3 512 416C512 433.7 497.7 448 480 448H192C174.3 448 160 433.7 160 416C160 398.3 174.3 384 192 384H480zM16 232C16 218.7 26.75 208 40 208H88C101.3 208 112 218.7 112 232V280C112 293.3 101.3 304 88 304H40C26.75 304 16 293.3 16 280V232zM88 368C101.3 368 112 378.7 112 392V440C112 453.3 101.3 464 88 464H40C26.75 464 16 453.3 16 440V392C16 378.7 26.75 368 40 368H88z"></path>
    </symbol>
    <symbol id="plus" viewBox="0 0 448 512">
        <path d="M432 256c0 17.69-14.33 32.01-32 32.01H256v144c0 17.69-14.33 31.99-32 31.99s-32-14.3-32-31.99v-144H48c-17.67 0-32-14.32-32-32.01s14.33-31.99 32-31.99H192v-144c0-17.69 14.33-32.01 32-32.01s32 14.32 32 32.01v144h144C417.7 224 432 238.3 432 256z"></path>
    </symbol>
    <symbol id="trash" viewBox="0 0 448 512">
        <path d="M53.21 467c1.562 24.84 23.02 45 47.9 45h245.8c24.88 0 46.33-20.16 47.9-45L416 128H32L53.21 467zM432 32H320l-11.58-23.16c-2.709-5.42-8.25-8.844-14.31-8.844H153.9c-6.061 0-11.6 3.424-14.31 8.844L128 32H16c-8.836 0-16 7.162-16 16V80c0 8.836 7.164 16 16 16h416c8.838 0 16-7.164 16-16V48C448 39.16 440.8 32 432 32z"></path>
    </symbol>
    <symbol id="pen-to-square" viewBox="0 0 512 512">
        <path d="M383.1 448H63.1V128h156.1l64-64H63.1C28.65 64 0 92.65 0 128v320c0 35.35 28.65 64 63.1 64h319.1c35.34 0 63.1-28.65 63.1-64l-.0039-220.1l-63.1 63.99V448zM497.9 42.19l-28.13-28.14c-18.75-18.75-49.14-18.75-67.88 0l-38.62 38.63l96.01 96.01l38.62-38.63C516.7 91.33 516.7 60.94 497.9 42.19zM147.3 274.4l-19.04 95.22c-1.678 8.396 5.725 15.8 14.12 14.12l95.23-19.04c4.646-.9297 8.912-3.213 12.26-6.562l186.8-186.8l-96.01-96.01L153.8 262.2C150.5 265.5 148.2 269.8 147.3 274.4z"></path>
    </symbol>
    <symbol id="copy" viewBox="0 0 512 512">
        <path d="M384 96L384 0h-112c-26.51 0-48 21.49-48 48v288c0 26.51 21.49 48 48 48H464c26.51 0 48-21.49 48-48V128h-95.1C398.4 128 384 113.6 384 96zM416 0v96h96L416 0zM192 352V128h-144c-26.51 0-48 21.49-48 48v288c0 26.51 21.49 48 48 48h192c26.51 0 48-21.49 48-48L288 416h-32C220.7 416 192 387.3 192 352z"></path>
    </symbol>
    <symbol id="pen" viewBox="0 0 512 512">
        <path d="M497.9 74.16L437.8 14.06c-18.75-18.75-49.19-18.75-67.93 0l-56.53 56.55l127.1 128l56.56-56.55C516.7 123.3 516.7 92.91 497.9 74.16zM290.8 93.23l-259.7 259.7c-2.234 2.234-3.755 5.078-4.376 8.176l-26.34 131.7C-1.921 504 7.95 513.9 19.15 511.7l131.7-26.34c3.098-.6191 5.941-2.141 8.175-4.373l259.7-259.7L290.8 93.23z"></path>
    </symbol>
    <symbol id="xmark" viewBox="0 0 320 512">
        <path d="M310.6 361.4c12.5 12.5 12.5 32.75 0 45.25C304.4 412.9 296.2 416 288 416s-16.38-3.125-22.62-9.375L160 301.3L54.63 406.6C48.38 412.9 40.19 416 32 416S15.63 412.9 9.375 406.6c-12.5-12.5-12.5-32.75 0-45.25l105.4-105.4L9.375 150.6c-12.5-12.5-12.5-32.75 0-45.25s32.75-12.5 45.25 0L160 210.8l105.4-105.4c12.5-12.5 32.75-12.5 45.25 0s12.5 32.75 0 45.25l-105.4 105.4L310.6 361.4z"></path>
    </symbol>
    <symbol id="list-check" viewBox="0 0 512 512">
        <path d="M152.1 38.16C161.9 47.03 162.7 62.2 153.8 72.06L81.84 152.1C77.43 156.9 71.21 159.8 64.63 159.1C58.05 160.2 51.69 157.6 47.03 152.1L7.029 112.1C-2.343 103.6-2.343 88.4 7.029 79.03C16.4 69.66 31.6 69.66 40.97 79.03L63.08 101.1L118.2 39.94C127 30.09 142.2 29.29 152.1 38.16V38.16zM152.1 198.2C161.9 207 162.7 222.2 153.8 232.1L81.84 312.1C77.43 316.9 71.21 319.8 64.63 319.1C58.05 320.2 51.69 317.6 47.03 312.1L7.029 272.1C-2.343 263.6-2.343 248.4 7.029 239C16.4 229.7 31.6 229.7 40.97 239L63.08 261.1L118.2 199.9C127 190.1 142.2 189.3 152.1 198.2V198.2zM224 96C224 78.33 238.3 64 256 64H480C497.7 64 512 78.33 512 96C512 113.7 497.7 128 480 128H256C238.3 128 224 113.7 224 96V96zM224 256C224 238.3 238.3 224 256 224H480C497.7 224 512 238.3 512 256C512 273.7 497.7 288 480 288H256C238.3 288 224 273.7 224 256zM160 416C160 398.3 174.3 384 192 384H480C497.7 384 512 398.3 512 416C512 433.7 497.7 448 480 448H192C174.3 448 160 433.7 160 416zM0 416C0 389.5 21.49 368 48 368C74.51 368 96 389.5 96 416C96 442.5 74.51 464 48 464C21.49 464 0 442.5 0 416z"></path>
    </symbol>
    <symbol id="circle-play" viewBox="0 0 512 512">
        <path d="M256 0C114.6 0 0 114.6 0 256s114.6 256 256 256s256-114.6 256-256S397.4 0 256 0zM372.5 276.5l-144 88C224.7 366.8 220.3 368 216 368c-13.69 0-24-11.2-24-24V168C192 155.3 202.2 144 216 144c4.344 0 8.678 1.176 12.51 3.516l144 88C379.6 239.9 384 247.6 384 256C384 264.4 379.6 272.1 372.5 276.5z"></path>
    </symbol>
    <symbol id="circle-pause" viewBox="0 0 512 512">
        <path d="M256 0C114.6 0 0 114.6 0 256s114.6 256 256 256s256-114.6 256-256S397.4 0 256 0zM224 191.1v128C224 337.7 209.7 352 192 352S160 337.7 160 320V191.1C160 174.3 174.3 160 191.1 160S224 174.3 224 191.1zM352 191.1v128C352 337.7 337.7 352 320 352S288 337.7 288 320V191.1C288 174.3 302.3 160 319.1 160S352 174.3 352 191.1z"></path>
    </symbol>
    <symbol id="circle-stop" viewBox="0 0 512 512">
        <path d="M256 0C114.6 0 0 114.6 0 256c0 141.4 114.6 256 256 256s256-114.6 256-256C512 114.6 397.4 0 256 0zM352 328c0 13.2-10.8 24-24 24h-144C170.8 352 160 341.2 160 328v-144C160 170.8 170.8 160 184 160h144C341.2 160 352 170.8 352 184V328z"></path>
    </symbol>
    <symbol id="play" viewBox="0 0 512 512">
        <path d="M176 480C148.6 480 128 457.6 128 432v-352c0-25.38 20.4-47.98 48.01-47.98c8.686 0 17.35 2.352 25.02 7.031l288 176C503.3 223.8 512 239.3 512 256s-8.703 32.23-22.97 40.95l-288 176C193.4 477.6 184.7 480 176 480z"></path>
    </symbol>
    <symbol id="pause" viewBox="0 0 320 512">
        <path d="M272 63.1l-32 0c-26.51 0-48 21.49-48 47.1v288c0 26.51 21.49 48 48 48L272 448c26.51 0 48-21.49 48-48v-288C320 85.49 298.5 63.1 272 63.1zM80 63.1l-32 0c-26.51 0-48 21.49-48 48v288C0 426.5 21.49 448 48 448l32 0c26.51 0 48-21.49 48-48v-288C128 85.49 106.5 63.1 80 63.1z"></path>
    </symbol>
    <symbol id="stop" viewBox="0 0 384 512">
        <path d="M384 128v255.1c0 35.35-28.65 64-64 64H64c-35.35 0-64-28.65-64-64V128c0-35.35 28.65-64 64-64H320C355.3 64 384 92.65 384 128z"></path>
    </symbol>
    <symbol id="volume-high" viewBox="0 0 640 512">
        <path d="M412.6 182c-10.28-8.334-25.41-6.867-33.75 3.402c-8.406 10.24-6.906 25.35 3.375 33.74C393.5 228.4 400 241.8 400 255.1c0 14.17-6.5 27.59-17.81 36.83c-10.28 8.396-11.78 23.5-3.375 33.74c4.719 5.806 11.62 8.802 18.56 8.802c5.344 0 10.75-1.779 15.19-5.399C435.1 311.5 448 284.6 448 255.1S435.1 200.4 412.6 182zM473.1 108.2c-10.22-8.334-25.34-6.898-33.78 3.34c-8.406 10.24-6.906 25.35 3.344 33.74C476.6 172.1 496 213.3 496 255.1s-19.44 82.1-53.31 110.7c-10.25 8.396-11.75 23.5-3.344 33.74c4.75 5.775 11.62 8.771 18.56 8.771c5.375 0 10.75-1.779 15.22-5.431C518.2 366.9 544 313 544 255.1S518.2 145 473.1 108.2zM534.4 33.4c-10.22-8.334-25.34-6.867-33.78 3.34c-8.406 10.24-6.906 25.35 3.344 33.74C559.9 116.3 592 183.9 592 255.1s-32.09 139.7-88.06 185.5c-10.25 8.396-11.75 23.5-3.344 33.74C505.3 481 512.2 484 519.2 484c5.375 0 10.75-1.779 15.22-5.431C601.5 423.6 640 342.5 640 255.1S601.5 88.34 534.4 33.4zM301.2 34.98c-11.5-5.181-25.01-3.076-34.43 5.29L131.8 160.1H48c-26.51 0-48 21.48-48 47.96v95.92c0 26.48 21.49 47.96 48 47.96h83.84l134.9 119.8C272.7 477 280.3 479.8 288 479.8c4.438 0 8.959-.9314 13.16-2.835C312.7 471.8 320 460.4 320 447.9V64.12C320 51.55 312.7 40.13 301.2 34.98z"></path>
    </symbol>
    <symbol id="volume-low" viewBox="0 0 448 512">
        <path d="M412.6 181.9c-10.28-8.344-25.41-6.875-33.75 3.406c-8.406 10.25-6.906 25.37 3.375 33.78C393.5 228.4 400 241.8 400 256c0 14.19-6.5 27.62-17.81 36.87c-10.28 8.406-11.78 23.53-3.375 33.78c4.719 5.812 11.62 8.812 18.56 8.812c5.344 0 10.75-1.781 15.19-5.406C435.1 311.6 448 284.7 448 256S435.1 200.4 412.6 181.9zM301.2 34.84c-11.5-5.187-25.01-3.116-34.43 5.259L131.8 160H48c-26.51 0-48 21.49-48 47.1v95.1c0 26.51 21.49 47.1 48 47.1h83.84l134.9 119.9C272.7 477.2 280.3 480 288 480c4.438 0 8.959-.9313 13.16-2.837C312.7 472 320 460.6 320 448V64C320 51.41 312.7 39.1 301.2 34.84z"></path>
    </symbol>
    <symbol id="volume-off" viewBox="0 0 320 512">
        <path d="M320 64v383.1c0 12.59-7.337 24.01-18.84 29.16C296.1 479.1 292.4 480 288 480c-7.688 0-15.28-2.781-21.27-8.094l-134.9-119.9H48c-26.51 0-48-21.49-48-47.1V208c0-26.51 21.49-47.1 48-47.1h83.84l134.9-119.9c9.422-8.375 22.93-10.45 34.43-5.259C312.7 39.1 320 51.41 320 64z"></path>
    </symbol>
    <symbol id="volume-xmark" viewBox="0 0 576 512">
        <path d="M301.2 34.85c-11.5-5.188-25.02-3.122-34.44 5.253L131.8 160H48c-26.51 0-48 21.49-48 47.1v95.1c0 26.51 21.49 47.1 48 47.1h83.84l134.9 119.9c5.984 5.312 13.58 8.094 21.26 8.094c4.438 0 8.972-.9375 13.17-2.844c11.5-5.156 18.82-16.56 18.82-29.16V64C319.1 51.41 312.7 40 301.2 34.85zM513.9 255.1l47.03-47.03c9.375-9.375 9.375-24.56 0-33.94s-24.56-9.375-33.94 0L480 222.1L432.1 175c-9.375-9.375-24.56-9.375-33.94 0s-9.375 24.56 0 33.94l47.03 47.03l-47.03 47.03c-9.375 9.375-9.375 24.56 0 33.94c9.373 9.373 24.56 9.381 33.94 0L480 289.9l47.03 47.03c9.373 9.373 24.56 9.381 33.94 0c9.375-9.375 9.375-24.56 0-33.94L513.9 255.1z"></path>
    </symbol>
    <symbol id="backward-step" viewBox="0 0 320 512">
        <path d="M31.1 64.03c-17.67 0-31.1 14.33-31.1 32v319.9c0 17.67 14.33 32 32 32C49.67 447.1 64 433.6 64 415.1V96.03C64 78.36 49.67 64.03 31.1 64.03zM267.5 71.41l-192 159.1C67.82 237.8 64 246.9 64 256c0 9.094 3.82 18.18 11.44 24.62l192 159.1c20.63 17.12 52.51 2.75 52.51-24.62v-319.9C319.1 68.66 288.1 54.28 267.5 71.41z"></path>
    </symbol>
    <symbol id="forward-step" viewBox="0 0 320 512">
        <path d="M287.1 447.1c17.67 0 31.1-14.33 31.1-32V96.03c0-17.67-14.33-32-32-32c-17.67 0-31.1 14.33-31.1 31.1v319.9C255.1 433.6 270.3 447.1 287.1 447.1zM52.51 440.6l192-159.1c7.625-6.436 11.43-15.53 11.43-24.62c0-9.094-3.809-18.18-11.43-24.62l-192-159.1C31.88 54.28 0 68.66 0 96.03v319.9C0 443.3 31.88 457.7 52.51 440.6z"></path>
    </symbol>
    <symbol id="shuffle" viewBox="0 0 512 512">
        <path d="M424.1 287c-15.13-15.12-40.1-4.426-40.1 16.97V352H336L153.6 108.8C147.6 100.8 138.1 96 128 96H32C14.31 96 0 110.3 0 128s14.31 32 32 32h80l182.4 243.2C300.4 411.3 309.9 416 320 416h63.97v47.94c0 21.39 25.86 32.12 40.99 17l79.1-79.98c9.387-9.387 9.387-24.59 0-33.97L424.1 287zM336 160h47.97v48.03c0 21.39 25.87 32.09 40.1 16.97l79.1-79.98c9.387-9.391 9.385-24.59-.0013-33.97l-79.1-79.98c-15.13-15.12-40.99-4.391-40.99 17V96H320c-10.06 0-19.56 4.75-25.59 12.81L254 162.7L293.1 216L336 160zM112 352H32c-17.69 0-32 14.31-32 32s14.31 32 32 32h96c10.06 0 19.56-4.75 25.59-12.81l40.4-53.87L154 296L112 352z"></path>
    </symbol>
    <symbol id="retweet" viewBox="0 0 640 512">
        <path d="M614.2 334.8C610.5 325.8 601.7 319.1 592 319.1H544V176C544 131.9 508.1 96 464 96h-128c-17.67 0-32 14.31-32 32s14.33 32 32 32h128C472.8 160 480 167.2 480 176v143.1h-48c-9.703 0-18.45 5.844-22.17 14.82s-1.656 19.29 5.203 26.16l80 80.02C499.7 445.7 505.9 448 512 448s12.28-2.344 16.97-7.031l80-80.02C615.8 354.1 617.9 343.8 614.2 334.8zM304 352h-128C167.2 352 160 344.8 160 336V192h48c9.703 0 18.45-5.844 22.17-14.82s1.656-19.29-5.203-26.16l-80-80.02C140.3 66.34 134.1 64 128 64S115.7 66.34 111 71.03l-80 80.02C24.17 157.9 22.11 168.2 25.83 177.2S38.3 192 48 192H96V336C96 380.1 131.9 416 176 416h128c17.67 0 32-14.31 32-32S321.7 352 304 352z"></path>
    </symbol>
</svg>