<svg xmlns="http://www.w3.org/2000/svg" width="24" height="24"><style><![CDATA[:root>svg{display:none}:root>svg:target{display:block}]]></style><svg id="storage" viewBox="0 0 24 24"><path d="M3 20v-4h18v4Zm2-1h2v-2H5ZM3 8V4h18v4Zm2-1h2V5H5Zm-2 7v-4h18v4Zm2-1h2v-2H5Z"/></svg><svg id="devices" viewBox="0 0 24 24"><path d="M2 20v-3h2V6q0-.825.588-1.412Q5.175 4 6 4h15v2H6v11h6v3Zm13 0q-.425 0-.712-.288Q14 19.425 14 19V9q0-.425.288-.713Q14.575 8 15 8h6q.425 0 .712.287Q22 8.575 22 9v10q0 .425-.288.712Q21.425 20 21 20Zm1-3h4v-7h-4Z"/></svg><svg id="connected_tv" viewBox="0 0 24 24"><path d="M5 16h2q0-.825-.588-1.413Q5.825 14 5 14Zm5 0q0-2.075-1.463-3.538Q7.075 11 5 11v1.45q1.475 0 2.513 1.038Q8.55 14.525 8.55 16Zm3 0q0-1.65-.625-3.113-.625-1.462-1.712-2.55-1.088-1.087-2.55-1.712Q6.65 8 5 8v1.45q2.725 0 4.638 1.912Q11.55 13.275 11.55 16Zm-5 5v-2H4q-.825 0-1.412-.587Q2 17.825 2 17V5q0-.825.588-1.413Q3.175 3 4 3h16q.825 0 1.413.587Q22 4.175 22 5v12q0 .825-.587 1.413Q20.825 19 20 19h-4v2Zm-4-4h16V5H4v12Zm0 0V5v12Z"/></svg><svg id="speaker" viewBox="0 0 24 24"><path d="M17 22H7q-.825 0-1.412-.587Q5 20.825 5 20V4q0-.825.588-1.413Q6.175 2 7 2h10q.825 0 1.413.587Q19 3.175 19 4v16q0 .825-.587 1.413Q17.825 22 17 22Zm0-2V4H7v16ZM12 9q.825 0 1.413-.588Q14 7.825 14 7t-.587-1.412Q12.825 5 12 5q-.825 0-1.412.588Q10 6.175 10 7t.588 1.412Q11.175 9 12 9Zm0 10q1.65 0 2.825-1.175Q16 16.65 16 15q0-1.65-1.175-2.825Q13.65 11 12 11q-1.65 0-2.825 1.175Q8 13.35 8 15q0 1.65 1.175 2.825Q10.35 19 12 19Zm0-2q-.825 0-1.412-.587Q10 15.825 10 15q0-.825.588-1.413Q11.175 13 12 13t1.413.587Q14 14.175 14 15q0 .825-.587 1.413Q12.825 17 12 17ZM7 4v16V4Z"/></svg><svg id="mood_bad" viewBox="0 0 24 24"><path d="M15.5 11q.65 0 1.075-.425Q17 10.15 17 9.5q0-.65-.425-1.075Q16.15 8 15.5 8q-.65 0-1.075.425Q14 8.85 14 9.5q0 .65.425 1.075Q14.85 11 15.5 11Zm-7 0q.65 0 1.075-.425Q10 10.15 10 9.5q0-.65-.425-1.075Q9.15 8 8.5 8q-.65 0-1.075.425Q7 8.85 7 9.5q0 .65.425 1.075Q7.85 11 8.5 11Zm3.5 2.5q-1.775 0-3.137.975Q7.5 15.45 6.9 17h10.2q-.6-1.55-1.963-2.525Q13.775 13.5 12 13.5Zm0 8.5q-2.075 0-3.9-.788-1.825-.787-3.175-2.137-1.35-1.35-2.137-3.175Q2 14.075 2 12t.788-3.9q.787-1.825 2.137-3.175 1.35-1.35 3.175-2.138Q9.925 2 12 2t3.9.787q1.825.788 3.175 2.138 1.35 1.35 2.137 3.175Q22 9.925 22 12t-.788 3.9q-.787 1.825-2.137 3.175-1.35 1.35-3.175 2.137Q14.075 22 12 22Zm0-10Zm0 8q3.325 0 5.663-2.337Q20 15.325 20 12t-2.337-5.663Q15.325 4 12 4T6.338 6.337Q4 8.675 4 12t2.338 5.663Q8.675 20 12 20Z"/></svg></svg>
