<svg xmlns="http://www.w3.org/2000/svg" width="24" height="24"><style><![CDATA[:root>svg{display:none}:root>svg:target{display:block}]]></style><svg id="storage" viewBox="0 0 24 24"><path d="M2 20h20v-4H2v4zm2-3h2v2H4v-2zM2 4v4h20V4H2zm4 3H4V5h2v2zm-4 7h20v-4H2v4zm2-3h2v2H4v-2z"/></svg><svg id="connected_tv" viewBox="0 0 24 24"><path d="M20,3H4C2.9,3,2,3.9,2,5v12c0,1.1,0.9,2,2,2h4v2h8v-2h4c1.1,0,1.99-0.9,1.99-2L22,5C22,3.9,21.1,3,20,3z M20,17H4V5h16V17 z M5,14v2h2C7,14.89,6.11,14,5,14z M5,11v1.43c1.97,0,3.57,1.6,3.57,3.57H10C10,13.24,7.76,11,5,11z M5,8v1.45 c3.61,0,6.55,2.93,6.55,6.55H13C13,11.58,9.41,8,5,8z"/></svg><svg id="speaker" viewBox="0 0 24 24"><path d="M17 2H7c-1.1 0-2 .9-2 2v16c0 1.1.9 1.99 2 1.99L17 22c1.1 0 2-.9 2-2V4c0-1.1-.9-2-2-2zM7 20V4h10v16H7zm5-11c1.1 0 2-.9 2-2s-.9-2-2-2c-1.11 0-2 .9-2 2s.89 2 2 2zm0 2c-2.21 0-4 1.79-4 4s1.79 4 4 4 4-1.79 4-4-1.79-4-4-4zm0 6c-1.1 0-2-.9-2-2s.9-2 2-2 2 .9 2 2-.9 2-2 2z"/></svg></svg>
