<svg xmlns="http://www.w3.org/2000/svg" width="24" height="24"><style><![CDATA[:root>svg{display:none}:root>svg:target{display:block}]]></style><svg id="storage" viewBox="0 0 24 24"><path d="M2 20h20v-4H2v4zm2-3h2v2H4v-2zM2 4v4h20V4H2zm4 3H4V5h2v2zm-4 7h20v-4H2v4zm2-3h2v2H4v-2z"/></svg><svg id="devices" viewBox="0 0 24 24"><path d="M4 6h18V4H4c-1.1 0-2 .9-2 2v11H0v3h14v-3H4V6zm19 2h-6c-.55 0-1 .45-1 1v10c0 .55.45 1 1 1h6c.55 0 1-.45 1-1V9c0-.55-.45-1-1-1zm-1 9h-4v-7h4v7z"/></svg><svg id="connected_tv" viewBox="0 0 24 24"><path d="M20,3H4C2.9,3,2,3.9,2,5v12c0,1.1,0.9,2,2,2h4v2h8v-2h4c1.1,0,1.99-0.9,1.99-2L22,5C22,3.9,21.1,3,20,3z M20,17H4V5h16V17 z M5,14v2h2C7,14.89,6.11,14,5,14z M5,11v1.43c1.97,0,3.57,1.6,3.57,3.57H10C10,13.24,7.76,11,5,11z M5,8v1.45 c3.61,0,6.55,2.93,6.55,6.55H13C13,11.58,9.41,8,5,8z"/></svg><svg id="speaker" viewBox="0 0 24 24"><path d="M17 2H7c-1.1 0-2 .9-2 2v16c0 1.1.9 1.99 2 1.99L17 22c1.1 0 2-.9 2-2V4c0-1.1-.9-2-2-2zM7 20V4h10v16H7zm5-11c1.1 0 2-.9 2-2s-.9-2-2-2c-1.11 0-2 .9-2 2s.89 2 2 2zm0 2c-2.21 0-4 1.79-4 4s1.79 4 4 4 4-1.79 4-4-1.79-4-4-4zm0 6c-1.1 0-2-.9-2-2s.9-2 2-2 2 .9 2 2-.9 2-2 2z"/></svg><svg id="mood_bad" viewBox="0 0 24 24" fill="#fd7e14"><path d="M11.99 2C6.47 2 2 6.48 2 12s4.47 10 9.99 10C17.52 22 22 17.52 22 12S17.52 2 11.99 2zM12 20c-4.42 0-8-3.58-8-8s3.58-8 8-8 8 3.58 8 8-3.58 8-8 8zm3.5-9c.83 0 1.5-.67 1.5-1.5S16.33 8 15.5 8 14 8.67 14 9.5s.67 1.5 1.5 1.5zm-7 0c.83 0 1.5-.67 1.5-1.5S9.33 8 8.5 8 7 8.67 7 9.5 7.67 11 8.5 11zm3.5 2.5c-2.33 0-4.31 1.46-5.11 3.5h10.22c-.8-2.04-2.78-3.5-5.11-3.5z"/></svg></svg>
