<svg xmlns="http://www.w3.org/2000/svg" width="24" height="24"><style><![CDATA[:root>svg{display:none}:root>svg:target{display:block}]]></style><svg id="storage" viewBox="0 -960 960 960"><path d="M120-160v-160h720v160H120Zm80-40h80v-80h-80v80Zm-80-440v-160h720v160H120Zm80-40h80v-80h-80v80Zm-80 280v-160h720v160H120Zm80-40h80v-80h-80v80Z"/></svg><svg id="devices" viewBox="0 -960 960 960"><path d="M80-160v-120h80v-440q0-33 23.5-56.5T240-800h600v80H240v440h240v120H80Zm520 0q-17 0-28.5-11.5T560-200v-400q0-17 11.5-28.5T600-640h240q17 0 28.5 11.5T880-600v400q0 17-11.5 28.5T840-160H600Zm40-120h160v-280H640v280Zm0 0h160-160Z"/></svg><svg id="connected_tv" viewBox="0 -960 960 960"><path d="M200-320h80q0-33-23.5-56.5T200-400v80Zm142 0h58q0-83-58.5-141.5T200-520v58q59 0 100.5 41.5T342-320Zm120 0h58q0-66-25-124.5t-68.5-102Q383-590 324.5-615T200-640v58q109 0 185.5 76.5T462-320ZM320-120v-80H160q-33 0-56.5-23.5T80-280v-480q0-33 23.5-56.5T160-840h640q33 0 56.5 23.5T880-760v480q0 33-23.5 56.5T800-200H640v80H320ZM160-280h640v-480H160v480Zm0 0v-480 480Z"/></svg><svg id="speaker" viewBox="0 -960 960 960"><path d="M680-80H280q-33 0-56.5-23.5T200-160v-640q0-33 23.5-56.5T280-880h400q33 0 56.5 23.5T760-800v640q0 33-23.5 56.5T680-80Zm0-80v-640H280v640h400ZM480-600q33 0 56.5-23.5T560-680q0-33-23.5-56.5T480-760q-33 0-56.5 23.5T400-680q0 33 23.5 56.5T480-600Zm0 400q66 0 113-47t47-113q0-66-47-113t-113-47q-66 0-113 47t-47 113q0 66 47 113t113 47Zm0-80q-33 0-56.5-23.5T400-360q0-33 23.5-56.5T480-440q33 0 56.5 23.5T560-360q0 33-23.5 56.5T480-280ZM280-800v640-640Z"/></svg><svg id="mood_bad" viewBox="0 -960 960 960"><path d="M620-520q25 0 42.5-17.5T680-580q0-25-17.5-42.5T620-640q-25 0-42.5 17.5T560-580q0 25 17.5 42.5T620-520Zm-280 0q25 0 42.5-17.5T400-580q0-25-17.5-42.5T340-640q-25 0-42.5 17.5T280-580q0 25 17.5 42.5T340-520Zm140 100q-68 0-123.5 38.5T276-280h408q-25-63-80.5-101.5T480-420Zm0 340q-83 0-156-31.5T197-197q-54-54-85.5-127T80-480q0-83 31.5-156T197-763q54-54 127-85.5T480-880q83 0 156 31.5T763-763q54 54 85.5 127T880-480q0 83-31.5 156T763-197q-54 54-127 85.5T480-80Zm0-400Zm0 320q134 0 227-93t93-227q0-134-93-227t-227-93q-134 0-227 93t-93 227q0 134 93 227t227 93Z"/></svg></svg>
