<svg xmlns="http://www.w3.org/2000/svg" style="display:none" width="0" height="0"><symbol id="home_work" viewBox="0 0 24 24"><path d="M17 9h2V7h-2Zm0 4h2v-2h-2Zm0 4h2v-2h-2Zm0 4v-2h4V5h-9v1.4l-2-1.45V3h13v18ZM1 21V11l7-5 7 5v10H9v-5H7v5Zm2-2h2v-5h6v5h2v-7L8 8.45 3 12Zm14-9Zm-6 9v-5H5v5-5h6Z"/></symbol><symbol id="more_vert" viewBox="0 0 24 24"><path d="M12 20q-.825 0-1.412-.587Q10 18.825 10 18q0-.825.588-1.413Q11.175 16 12 16t1.413.587Q14 17.175 14 18q0 .825-.587 1.413Q12.825 20 12 20Zm0-6q-.825 0-1.412-.588Q10 12.825 10 12t.588-1.413Q11.175 10 12 10t1.413.587Q14 11.175 14 12q0 .825-.587 1.412Q12.825 14 12 14Zm0-6q-.825 0-1.412-.588Q10 6.825 10 6t.588-1.412Q11.175 4 12 4t1.413.588Q14 5.175 14 6t-.587 1.412Q12.825 8 12 8Z"/></symbol><symbol id="arrow_back_ios" viewBox="0 0 24 24"><path d="M10 22 0 12 10 2l1.775 1.775L3.55 12l8.225 8.225Z"/></symbol><symbol id="first_page" viewBox="0 0 24 24"><path d="M6 18V6h2v12Zm11 0-6-6 6-6 1.4 1.4-4.6 4.6 4.6 4.6Z"/></symbol><symbol id="chevron_left" viewBox="0 0 24 24"><path d="m14 18-6-6 6-6 1.4 1.4-4.6 4.6 4.6 4.6Z"/></symbol><symbol id="chevron_right" viewBox="0 0 24 24"><path d="M9.4 18 8 16.6l4.6-4.6L8 7.4 9.4 6l6 6Z"/></symbol><symbol id="last_page" viewBox="0 0 24 24"><path d="m7 18-1.4-1.4 4.6-4.6-4.6-4.6L7 6l6 6Zm9 0V6h2v12Z"/></symbol><symbol id="close" viewBox="0 0 24 24"><path d="M6.4 19 5 17.6l5.6-5.6L5 6.4 6.4 5l5.6 5.6L17.6 5 19 6.4 13.4 12l5.6 5.6-1.4 1.4-5.6-5.6Z"/></symbol><symbol id="settings" viewBox="0 0 24 24"><path d="m9.25 22-.4-3.2q-.325-.125-.612-.3-.288-.175-.563-.375L4.7 19.375l-2.75-4.75 2.575-1.95Q4.5 12.5 4.5 12.337v-.675q0-.162.025-.337L1.95 9.375l2.75-4.75 2.975 1.25q.275-.2.575-.375.3-.175.6-.3l.4-3.2h5.5l.4 3.2q.325.125.613.3.287.175.562.375l2.975-1.25 2.75 4.75-2.575 1.95q.025.175.025.337v.675q0 .163-.05.338l2.575 1.95-2.75 4.75-2.95-1.25q-.275.2-.575.375-.3.175-.6.3l-.4 3.2Zm2.8-6.5q1.45 0 2.475-1.025Q15.55 13.45 15.55 12q0-1.45-1.025-2.475Q13.5 8.5 12.05 8.5q-1.475 0-2.488 1.025Q8.55 10.55 8.55 12q0 1.45 1.012 2.475Q10.575 15.5 12.05 15.5Zm0-2q-.625 0-1.062-.438-.438-.437-.438-1.062t.438-1.062q.437-.438 1.062-.438t1.063.438q.437.437.437 1.062t-.437 1.062q-.438.438-1.063.438ZM12 12Zm-1 8h1.975l.35-2.65q.775-.2 1.438-.588.662-.387 1.212-.937l2.475 1.025.975-1.7-2.15-1.625q.125-.35.175-.738.05-.387.05-.787t-.05-.788q-.05-.387-.175-.737l2.15-1.625-.975-1.7-2.475 1.05q-.55-.575-1.212-.963-.663-.387-1.438-.587L13 4h-1.975l-.35 2.65q-.775.2-1.437.587-.663.388-1.213.938L5.55 7.15l-.975 1.7 2.15 1.6q-.125.375-.175.75-.05.375-.05.8 0 .4.05.775t.175.75l-2.15 1.625.975 1.7 2.475-1.05q.55.575 1.213.962.662.388 1.437.588Z"/></symbol><symbol id="delete" viewBox="0 0 24 24"><path d="M7 21q-.825 0-1.412-.587Q5 19.825 5 19V6H4V4h5V3h6v1h5v2h-1v13q0 .825-.587 1.413Q17.825 21 17 21ZM17 6H7v13h10ZM9 17h2V8H9Zm4 0h2V8h-2ZM7 6v13Z"/></symbol><symbol id="warning" viewBox="0 0 24 24"><path d="M12 12.5ZM1 21 12 2l11 19Zm10-6h2v-5h-2Zm1 3q.425 0 .713-.288Q13 17.425 13 17t-.287-.712Q12.425 16 12 16t-.712.288Q11 16.575 11 17t.288.712Q11.575 18 12 18Zm-7.55 1h15.1L12 6Z"/></symbol><symbol id="info" viewBox="0 0 24 24"><path d="M11 17h2v-6h-2Zm1-8q.425 0 .713-.288Q13 8.425 13 8t-.287-.713Q12.425 7 12 7t-.712.287Q11 7.575 11 8t.288.712Q11.575 9 12 9Zm0 13q-2.075 0-3.9-.788-1.825-.787-3.175-2.137-1.35-1.35-2.137-3.175Q2 14.075 2 12t.788-3.9q.787-1.825 2.137-3.175 1.35-1.35 3.175-2.138Q9.925 2 12 2t3.9.787q1.825.788 3.175 2.138 1.35 1.35 2.137 3.175Q22 9.925 22 12t-.788 3.9q-.787 1.825-2.137 3.175-1.35 1.35-3.175 2.137Q14.075 22 12 22Zm0-2q3.35 0 5.675-2.325Q20 15.35 20 12q0-3.35-2.325-5.675Q15.35 4 12 4 8.65 4 6.325 6.325 4 8.65 4 12q0 3.35 2.325 5.675Q8.65 20 12 20Zm0-8Z"/></symbol><symbol id="favorite" viewBox="0 0 24 24"><path d="m12 21-1.45-1.3q-2.525-2.275-4.175-3.925T3.75 12.812Q2.775 11.5 2.388 10.4 2 9.3 2 8.15 2 5.8 3.575 4.225 5.15 2.65 7.5 2.65q1.3 0 2.475.55T12 4.75q.85-1 2.025-1.55 1.175-.55 2.475-.55 2.35 0 3.925 1.575Q22 5.8 22 8.15q0 1.15-.387 2.25-.388 1.1-1.363 2.412-.975 1.313-2.625 2.963-1.65 1.65-4.175 3.925Zm0-2.7q2.4-2.15 3.95-3.688 1.55-1.537 2.45-2.674.9-1.138 1.25-2.026.35-.887.35-1.762 0-1.5-1-2.5t-2.5-1q-1.175 0-2.175.662-1 .663-1.375 1.688h-1.9q-.375-1.025-1.375-1.688-1-.662-2.175-.662-1.5 0-2.5 1t-1 2.5q0 .875.35 1.762.35.888 1.25 2.026.9 1.137 2.45 2.674Q9.6 16.15 12 18.3Zm0-6.825Z"/></symbol><symbol id="favorite_fill1" viewBox="0 0 24 24"><path d="m12 21-1.45-1.3q-2.525-2.275-4.175-3.925T3.75 12.812Q2.775 11.5 2.388 10.4 2 9.3 2 8.15 2 5.8 3.575 4.225 5.15 2.65 7.5 2.65q1.3 0 2.475.55T12 4.75q.85-1 2.025-1.55 1.175-.55 2.475-.55 2.35 0 3.925 1.575Q22 5.8 22 8.15q0 1.15-.387 2.25-.388 1.1-1.363 2.412-.975 1.313-2.625 2.963-1.65 1.65-4.175 3.925Z"/></symbol><symbol id="devices" viewBox="0 0 24 24"><path d="M2 20v-3h2V6q0-.825.588-1.412Q5.175 4 6 4h15v2H6v11h6v3Zm13 0q-.425 0-.712-.288Q14 19.425 14 19V9q0-.425.288-.713Q14.575 8 15 8h6q.425 0 .712.287Q22 8.575 22 9v10q0 .425-.288.712Q21.425 20 21 20Zm1-3h4v-7h-4Z"/></symbol><symbol id="storage" viewBox="0 0 24 24"><path d="M3 20v-4h18v4Zm2-1h2v-2H5ZM3 8V4h18v4Zm2-1h2V5H5Zm-2 7v-4h18v4Zm2-1h2v-2H5Z"/></symbol><symbol id="dark_mode" viewBox="0 0 24 24"><path d="M12 21q-3.75 0-6.375-2.625T3 12q0-3.75 2.625-6.375T12 3q.35 0 .688.025.337.025.662.075-1.025.725-1.637 1.887Q11.1 6.15 11.1 7.5q0 2.25 1.575 3.825Q14.25 12.9 16.5 12.9q1.375 0 2.525-.613 1.15-.612 1.875-1.637.05.325.075.662Q21 11.65 21 12q0 3.75-2.625 6.375T12 21Zm0-2q2.2 0 3.95-1.212 1.75-1.213 2.55-3.163-.5.125-1 .2-.5.075-1 .075-3.075 0-5.238-2.162Q9.1 10.575 9.1 7.5q0-.5.075-1t.2-1q-1.95.8-3.162 2.55Q5 9.8 5 12q0 2.9 2.05 4.95Q9.1 19 12 19Zm-.25-6.75Z"/></symbol><symbol id="light_mode" viewBox="0 0 24 24"><path d="M12 15q1.25 0 2.125-.875T15 12q0-1.25-.875-2.125T12 9q-1.25 0-2.125.875T9 12q0 1.25.875 2.125T12 15Zm0 2q-2.075 0-3.537-1.463Q7 14.075 7 12t1.463-3.538Q9.925 7 12 7t3.538 1.462Q17 9.925 17 12q0 2.075-1.462 3.537Q14.075 17 12 17ZM2 13q-.425 0-.712-.288Q1 12.425 1 12t.288-.713Q1.575 11 2 11h2q.425 0 .713.287Q5 11.575 5 12t-.287.712Q4.425 13 4 13Zm18 0q-.425 0-.712-.288Q19 12.425 19 12t.288-.713Q19.575 11 20 11h2q.425 0 .712.287.288.288.288.713t-.288.712Q22.425 13 22 13Zm-8-8q-.425 0-.712-.288Q11 4.425 11 4V2q0-.425.288-.713Q11.575 1 12 1t.713.287Q13 1.575 13 2v2q0 .425-.287.712Q12.425 5 12 5Zm0 18q-.425 0-.712-.288Q11 22.425 11 22v-2q0-.425.288-.712Q11.575 19 12 19t.713.288Q13 19.575 13 20v2q0 .425-.287.712Q12.425 23 12 23ZM5.65 7.05 4.575 6q-.3-.275-.288-.7.013-.425.288-.725.3-.3.725-.3t.7.3L7.05 5.65q.275.3.275.7 0 .4-.275.7-.275.3-.687.287-.413-.012-.713-.287ZM18 19.425l-1.05-1.075q-.275-.3-.275-.712 0-.413.275-.688.275-.3.688-.287.412.012.712.287L19.425 18q.3.275.288.7-.013.425-.288.725-.3.3-.725.3t-.7-.3ZM16.95 7.05q-.3-.275-.287-.688.012-.412.287-.712L18 4.575q.275-.3.7-.288.425.013.725.288.3.3.3.725t-.3.7L18.35 7.05q-.3.275-.7.275-.4 0-.7-.275ZM4.575 19.425q-.3-.3-.3-.725t.3-.7l1.075-1.05q.3-.275.713-.275.412 0 .687.275.3.275.288.688-.013.412-.288.712L6 19.425q-.275.3-.7.287-.425-.012-.725-.287ZM12 12Z"/></symbol><symbol id="file_download" viewBox="0 0 24 24"><path d="M6 20q-.825 0-1.412-.587Q4 18.825 4 18v-3h2v3h12v-3h2v3q0 .825-.587 1.413Q18.825 20 18 20Zm6-4-5-5 1.4-1.45 2.6 2.6V4h2v8.15l2.6-2.6L17 11Z"/></symbol><symbol id="upload_file" viewBox="0 0 24 24"><path d="M11 19h2v-4.175l1.6 1.6L16 15l-4-4-4 4 1.425 1.4L11 14.825Zm-5 3q-.825 0-1.412-.587Q4 20.825 4 20V4q0-.825.588-1.413Q5.175 2 6 2h8l6 6v12q0 .825-.587 1.413Q18.825 22 18 22Zm7-13V4H6v16h12V9ZM6 4v5-5 16V4Z"/></symbol><symbol id="folder" viewBox="0 0 24 24"><path d="M4 20q-.825 0-1.412-.587Q2 18.825 2 18V6q0-.825.588-1.412Q3.175 4 4 4h6l2 2h8q.825 0 1.413.588Q22 7.175 22 8v10q0 .825-.587 1.413Q20.825 20 20 20ZM4 6v12h16V8h-8.825l-2-2H4Zm0 0v12Z"/></symbol><symbol id="folder_open" viewBox="0 0 24 24"><path d="M4 20q-.825 0-1.412-.587Q2 18.825 2 18V6q0-.825.588-1.412Q3.175 4 4 4h6l2 2h8q.825 0 1.413.588Q22 7.175 22 8H11.175l-2-2H4v12l2.4-8h17.1l-2.575 8.575q-.2.65-.737 1.038Q19.65 20 19 20Zm2.1-2H19l1.8-6H7.9Zm0 0 1.8-6-1.8 6ZM4 8V6v2Z"/></symbol><symbol id="drive_file_rename_outline" viewBox="0 0 24 24"><path d="m10 21 4-4h8v4Zm-6-2h1.4l8.625-8.625-1.4-1.4L4 17.6ZM18.3 8.925l-4.25-4.2 1.4-1.4q.575-.575 1.413-.575.837 0 1.412.575l1.4 1.4q.575.575.6 1.388.025.812-.55 1.387ZM16.85 10.4 6.25 21H2v-4.25l10.6-10.6Zm-3.525-.725-.7-.7 1.4 1.4Z"/></symbol><symbol id="edit" viewBox="0 0 24 24"><path d="M5 19h1.4l8.625-8.625-1.4-1.4L5 17.6ZM19.3 8.925l-4.25-4.2 1.4-1.4q.575-.575 1.413-.575.837 0 1.412.575l1.4 1.4q.575.575.6 1.388.025.812-.55 1.387ZM17.85 10.4 7.25 21H3v-4.25l10.6-10.6Zm-3.525-.725-.7-.7 1.4 1.4Z"/></symbol><symbol id="checklist" viewBox="0 0 24 24"><path d="M5.55 19 2 15.45l1.4-1.4 2.125 2.125 4.25-4.25 1.4 1.425Zm0-8L2 7.45l1.4-1.4 2.125 2.125 4.25-4.25 1.4 1.425ZM13 17v-2h9v2Zm0-8V7h9v2Z"/></symbol><symbol id="unknown_document" viewBox="0 96 960 960"><path d="M200 256v640-640 200-200Zm80 400h147q11-23 25.5-43t32.5-37H280v80Zm0 160h123q-3-20-3-40t3-40H280v80Zm-80 160q-33 0-56.5-23.5T120 896V256q0-33 23.5-56.5T200 176h320l240 240v92q-19-6-39-9t-41-3v-40H480V256H200v640h227q11 23 25.5 43t32.5 37H200Zm480-400q83 0 141.5 58.5T880 776q0 83-58.5 141.5T680 976q-83 0-141.5-58.5T480 776q0-83 58.5-141.5T680 576Zm0 320q11 0 18.5-7.5T706 870q0-11-7.5-18.5T680 844q-11 0-18.5 7.5T654 870q0 11 7.5 18.5T680 896Zm-18-76h36v-10q0-11 6-19.5t14-16.5q14-12 22-23t8-31q0-29-19-46.5T680 656q-23 0-41.5 13.5T612 706l32 14q3-12 12.5-21t23.5-9q15 0 23.5 7.5T712 720q0 11-6 18.5T692 754q-6 6-12.5 12T668 780q-3 6-4.5 12t-1.5 14v14Z"/></symbol><symbol id="image" viewBox="0 0 24 24"><path d="M6 17h12l-3.75-5-3 4L9 13Zm-1 4q-.825 0-1.413-.587Q3 19.825 3 19V5q0-.825.587-1.413Q4.175 3 5 3h14q.825 0 1.413.587Q21 4.175 21 5v14q0 .825-.587 1.413Q19.825 21 19 21Zm0-2h14V5H5v14ZM5 5v14V5Z"/></symbol><symbol id="add" viewBox="0 0 24 24"><path d="M11 19v-6H5v-2h6V5h2v6h6v2h-6v6Z"/></symbol><symbol id="content_copy" viewBox="0 0 24 24"><path d="M5 22q-.825 0-1.413-.587Q3 20.825 3 20V6h2v14h11v2Zm4-4q-.825 0-1.412-.587Q7 16.825 7 16V4q0-.825.588-1.413Q8.175 2 9 2h9q.825 0 1.413.587Q20 3.175 20 4v12q0 .825-.587 1.413Q18.825 18 18 18Zm0-2h9V4H9v12Zm0 0V4v12Z"/></symbol><symbol id="connected_tv" viewBox="0 0 24 24"><path d="M5 16h2q0-.825-.588-1.413Q5.825 14 5 14Zm5 0q0-2.075-1.463-3.538Q7.075 11 5 11v1.45q1.475 0 2.513 1.038Q8.55 14.525 8.55 16Zm3 0q0-1.65-.625-3.113-.625-1.462-1.712-2.55-1.088-1.087-2.55-1.712Q6.65 8 5 8v1.45q2.725 0 4.638 1.912Q11.55 13.275 11.55 16Zm-5 5v-2H4q-.825 0-1.412-.587Q2 17.825 2 17V5q0-.825.588-1.413Q3.175 3 4 3h16q.825 0 1.413.587Q22 4.175 22 5v12q0 .825-.587 1.413Q20.825 19 20 19h-4v2Zm-4-4h16V5H4v12Zm0 0V5v12Z"/></symbol><symbol id="speaker" viewBox="0 0 24 24"><path d="M17 22H7q-.825 0-1.412-.587Q5 20.825 5 20V4q0-.825.588-1.413Q6.175 2 7 2h10q.825 0 1.413.587Q19 3.175 19 4v16q0 .825-.587 1.413Q17.825 22 17 22Zm0-2V4H7v16ZM12 9q.825 0 1.413-.588Q14 7.825 14 7t-.587-1.412Q12.825 5 12 5q-.825 0-1.412.588Q10 6.175 10 7t.588 1.412Q11.175 9 12 9Zm0 10q1.65 0 2.825-1.175Q16 16.65 16 15q0-1.65-1.175-2.825Q13.65 11 12 11q-1.65 0-2.825 1.175Q8 13.35 8 15q0 1.65 1.175 2.825Q10.35 19 12 19Zm0-2q-.825 0-1.412-.587Q10 15.825 10 15q0-.825.588-1.413Q11.175 13 12 13t1.413.587Q14 14.175 14 15q0 .825-.587 1.413Q12.825 17 12 17ZM7 4v16V4Z"/></symbol><symbol id="play_circle" viewBox="0 0 24 24"><path d="m9.5 16.5 7-4.5-7-4.5ZM12 22q-2.075 0-3.9-.788-1.825-.787-3.175-2.137-1.35-1.35-2.137-3.175Q2 14.075 2 12t.788-3.9q.787-1.825 2.137-3.175 1.35-1.35 3.175-2.138Q9.925 2 12 2t3.9.787q1.825.788 3.175 2.138 1.35 1.35 2.137 3.175Q22 9.925 22 12t-.788 3.9q-.787 1.825-2.137 3.175-1.35 1.35-3.175 2.137Q14.075 22 12 22Zm0-2q3.35 0 5.675-2.325Q20 15.35 20 12q0-3.35-2.325-5.675Q15.35 4 12 4 8.65 4 6.325 6.325 4 8.65 4 12q0 3.35 2.325 5.675Q8.65 20 12 20Zm0-8Z"/></symbol><symbol id="stop_circle" viewBox="0 0 24 24"><path d="M8 16h8V8H8Zm4 6q-2.075 0-3.9-.788-1.825-.787-3.175-2.137-1.35-1.35-2.137-3.175Q2 14.075 2 12t.788-3.9q.787-1.825 2.137-3.175 1.35-1.35 3.175-2.138Q9.925 2 12 2t3.9.787q1.825.788 3.175 2.138 1.35 1.35 2.137 3.175Q22 9.925 22 12t-.788 3.9q-.787 1.825-2.137 3.175-1.35 1.35-3.175 2.137Q14.075 22 12 22Zm0-2q3.35 0 5.675-2.325Q20 15.35 20 12q0-3.35-2.325-5.675Q15.35 4 12 4 8.65 4 6.325 6.325 4 8.65 4 12q0 3.35 2.325 5.675Q8.65 20 12 20Zm0-8Z"/></symbol><symbol id="pause_circle" viewBox="0 0 24 24"><path d="M9 16h2V8H9Zm4 0h2V8h-2Zm-1 6q-2.075 0-3.9-.788-1.825-.787-3.175-2.137-1.35-1.35-2.137-3.175Q2 14.075 2 12t.788-3.9q.787-1.825 2.137-3.175 1.35-1.35 3.175-2.138Q9.925 2 12 2t3.9.787q1.825.788 3.175 2.138 1.35 1.35 2.137 3.175Q22 9.925 22 12t-.788 3.9q-.787 1.825-2.137 3.175-1.35 1.35-3.175 2.137Q14.075 22 12 22Zm0-2q3.35 0 5.675-2.325Q20 15.35 20 12q0-3.35-2.325-5.675Q15.35 4 12 4 8.65 4 6.325 6.325 4 8.65 4 12q0 3.35 2.325 5.675Q8.65 20 12 20Zm0-8Z"/></symbol><symbol id="play_arrow" viewBox="0 0 24 24"><path d="M8 19V5l11 7Zm2-7Zm0 3.35L15.25 12 10 8.65Z"/></symbol><symbol id="pause" viewBox="0 0 24 24"><path d="M14 19V5h4v14Zm-8 0V5h4v14Z"/></symbol><symbol id="block" viewBox="0 0 24 24"><path d="M12 22q-2.075 0-3.9-.788-1.825-.787-3.175-2.137-1.35-1.35-2.137-3.175Q2 14.075 2 12t.788-3.9q.787-1.825 2.137-3.175 1.35-1.35 3.175-2.138Q9.925 2 12 2t3.9.787q1.825.788 3.175 2.138 1.35 1.35 2.137 3.175Q22 9.925 22 12t-.788 3.9q-.787 1.825-2.137 3.175-1.35 1.35-3.175 2.137Q14.075 22 12 22Zm0-2q3.35 0 5.675-2.325Q20 15.35 20 12q0-1.35-.438-2.6-.437-1.25-1.262-2.3L7.1 18.3q1.05.825 2.3 1.262Q10.65 20 12 20Zm-6.3-3.1L16.9 5.7q-1.05-.825-2.3-1.262Q13.35 4 12 4 8.65 4 6.325 6.325 4 8.65 4 12q0 1.35.438 2.6.437 1.25 1.262 2.3Z"/></symbol><symbol id="playlist_add" viewBox="0 0 24 24"><path d="M3 16v-2h7v2Zm0-4v-2h11v2Zm0-4V6h11v2Zm13 12v-4h-4v-2h4v-4h2v4h4v2h-4v4Z"/></symbol><symbol id="playlist_play" viewBox="0 0 24 24"><path d="M2.5 16v-2h8v2Zm0-4v-2h12v2Zm0-4V6h12v2Zm13 13v-8l6 4Z"/></symbol><symbol id="skip_previous" viewBox="0 0 24 24"><path d="M5.5 18V6h2v12Zm13 0-9-6 9-6Zm-2-6Zm0 2.25v-4.5L13.1 12Z"/></symbol><symbol id="skip_next" viewBox="0 0 24 24"><path d="M16.5 18V6h2v12Zm-11 0V6l9 6Zm2-6Zm0 2.25L10.9 12 7.5 9.75Z"/></symbol><symbol id="shuffle" viewBox="0 0 24 24"><path d="M9.175 10.575 4 5.4 5.4 4l5.175 5.175ZM14 20v-2h2.6l-3.175-3.175L14.85 13.4 18 16.55V14h2v6Zm-8.6 0L4 18.6 16.6 6H14V4h6v6h-2V7.4Z"/></symbol><symbol id="repeat" viewBox="0 0 24 24"><path d="m7 22-4-4 4-4 1.4 1.45L6.85 17H17v-4h2v6H6.85l1.55 1.55ZM5 11V5h12.15L15.6 3.45 17 2l4 4-4 4-1.4-1.45L17.15 7H7v4Z"/></symbol><symbol id="volume_off" viewBox="0 0 24 24"><path d="m19.8 22.6-3.025-3.025q-.625.4-1.325.688-.7.287-1.45.462v-2.05q.35-.125.688-.25.337-.125.637-.3L12 14.8V20l-5-5H3V9h3.2L1.4 4.2l1.4-1.4 18.4 18.4Zm-.2-5.8-1.45-1.45q.425-.775.638-1.625.212-.85.212-1.75 0-2.35-1.375-4.2T14 5.275v-2.05q3.1.7 5.05 3.137Q21 8.8 21 11.975q0 1.325-.362 2.55-.363 1.225-1.038 2.275ZM9.1 11.9Zm7.15 1.55L14 11.2V7.95q1.175.55 1.838 1.65.662 1.1.662 2.4 0 .375-.062.738-.063.362-.188.712ZM12 9.2 9.4 6.6 12 4Zm-2 5.95V12.8L8.2 11H5v2h2.85Z"/></symbol><symbol id="volume_mute" viewBox="0 0 24 24"><path d="M7 15V9h4l5-5v16l-5-5Zm2-2h2.85L14 15.15v-6.3L11.85 11H9Zm2.5-1Z"/></symbol><symbol id="volume_down" viewBox="0 0 24 24"><path d="M5 15V9h4l5-5v16l-5-5Zm11 1V7.95q1.125.525 1.812 1.625.688 1.1.688 2.425 0 1.325-.688 2.4Q17.125 15.475 16 16Zm-4-7.15L9.85 11H7v2h2.85L12 15.15ZM9.5 12Z"/></symbol><symbol id="volume_up" viewBox="0 0 24 24"><path d="M14 20.725v-2.05q2.25-.65 3.625-2.5t1.375-4.2q0-2.35-1.375-4.2T14 5.275v-2.05q3.1.7 5.05 3.137Q21 8.8 21 11.975q0 3.175-1.95 5.612-1.95 2.438-5.05 3.138ZM3 15V9h4l5-5v16l-5-5Zm11 1V7.95q1.125.525 1.812 1.625.688 1.1.688 2.425 0 1.325-.688 2.4Q15.125 15.475 14 16Zm-4-7.15L7.85 11H5v2h2.85L10 15.15ZM7.5 12Z"/></symbol><symbol id="queue_music" viewBox="0 0 24 24"><path d="M16 20q-1.25 0-2.125-.875T13 17q0-1.25.875-2.125T16 14q.275 0 .525.037.25.038.475.163V6h5v2h-3v9q0 1.25-.875 2.125T16 20ZM3 16v-2h8v2Zm0-4v-2h12v2Zm0-4V6h12v2Z"/></symbol><symbol id="featured_play_list" viewBox="0 0 24 24"><path d="M6 13h9v-2H6Zm0-3h9V8H6ZM4 20q-.825 0-1.412-.587Q2 18.825 2 18V6q0-.825.588-1.412Q3.175 4 4 4h16q.825 0 1.413.588Q22 5.175 22 6v12q0 .825-.587 1.413Q20.825 20 20 20Zm0-2h16V6H4v12Zm0 0V6v12Z"/></symbol><symbol id="video_library" viewBox="0 0 24 24"><path d="m11.5 14.5 7-4.5-7-4.5ZM8 18q-.825 0-1.412-.587Q6 16.825 6 16V4q0-.825.588-1.413Q7.175 2 8 2h12q.825 0 1.413.587Q22 3.175 22 4v12q0 .825-.587 1.413Q20.825 18 20 18Zm0-2h12V4H8v12Zm-4 6q-.825 0-1.412-.587Q2 20.825 2 20V6h2v14h14v2ZM8 4v12V4Z"/></symbol><symbol id="audio_file" viewBox="0 0 24 24"><path d="M10.75 19q.95 0 1.6-.65.65-.65.65-1.6V13h3v-2h-4v3.875q-.275-.2-.587-.288-.313-.087-.663-.087-.95 0-1.6.65-.65.65-.65 1.6 0 .95.65 1.6.65.65 1.6.65ZM6 22q-.825 0-1.412-.587Q4 20.825 4 20V4q0-.825.588-1.413Q5.175 2 6 2h8l6 6v12q0 .825-.587 1.413Q18.825 22 18 22Zm7-13V4H6v16h12V9ZM6 4v5-5 16V4Z"/></symbol><symbol id="video_file" viewBox="0 0 24 24"><path d="M9 18h4q.425 0 .713-.288Q14 17.425 14 17v-1l2 1.05v-4.1L14 14v-1q0-.425-.287-.713Q13.425 12 13 12H9q-.425 0-.712.287Q8 12.575 8 13v4q0 .425.288.712Q8.575 18 9 18Zm-3 4q-.825 0-1.412-.587Q4 20.825 4 20V4q0-.825.588-1.413Q5.175 2 6 2h8l6 6v12q0 .825-.587 1.413Q18.825 22 18 22Zm7-13V4H6v16h12V9ZM6 4v5-5 16V4Z"/></symbol><symbol id="album" viewBox="0 0 24 24"><path d="M12 16.5q1.875 0 3.188-1.312Q16.5 13.875 16.5 12q0-1.875-1.312-3.188Q13.875 7.5 12 7.5q-1.875 0-3.188 1.312Q7.5 10.125 7.5 12q0 1.875 1.312 3.188Q10.125 16.5 12 16.5Zm0-3.5q-.425 0-.712-.288Q11 12.425 11 12t.288-.713Q11.575 11 12 11t.713.287Q13 11.575 13 12t-.287.712Q12.425 13 12 13Zm0 9q-2.075 0-3.9-.788-1.825-.787-3.175-2.137-1.35-1.35-2.137-3.175Q2 14.075 2 12t.788-3.9q.787-1.825 2.137-3.175 1.35-1.35 3.175-2.138Q9.925 2 12 2t3.9.787q1.825.788 3.175 2.138 1.35 1.35 2.137 3.175Q22 9.925 22 12t-.788 3.9q-.787 1.825-2.137 3.175-1.35 1.35-3.175 2.137Q14.075 22 12 22Zm0-2q3.35 0 5.675-2.325Q20 15.35 20 12q0-3.35-2.325-5.675Q15.35 4 12 4 8.65 4 6.325 6.325 4 8.65 4 12q0 3.35 2.325 5.675Q8.65 20 12 20Zm0-8Z"/></symbol><symbol id="movie" viewBox="0 0 24 24"><path d="m4 4 2 4h3L7 4h2l2 4h3l-2-4h2l2 4h3l-2-4h3q.825 0 1.413.588Q22 5.175 22 6v12q0 .825-.587 1.413Q20.825 20 20 20H4q-.825 0-1.412-.587Q2 18.825 2 18V6q0-.825.588-1.412Q3.175 4 4 4Zm0 6v8h16v-8Zm0 0v8Z"/></symbol><symbol id="music_note" viewBox="0 0 24 24"><path d="M10 21q-1.65 0-2.825-1.175Q6 18.65 6 17q0-1.65 1.175-2.825Q8.35 13 10 13q.575 0 1.062.137.488.138.938.413V3h6v4h-4v10q0 1.65-1.175 2.825Q11.65 21 10 21Z"/></symbol><symbol id="contrast" viewBox="0 0 24 24"><path d="M12 22q-2.075 0-3.9-.788-1.825-.787-3.175-2.137-1.35-1.35-2.137-3.175Q2 14.075 2 12t.788-3.9q.787-1.825 2.137-3.175 1.35-1.35 3.175-2.138Q9.925 2 12 2t3.9.787q1.825.788 3.175 2.138 1.35 1.35 2.137 3.175Q22 9.925 22 12t-.788 3.9q-.787 1.825-2.137 3.175-1.35 1.35-3.175 2.137Q14.075 22 12 22Zm1-2.075q2.975-.375 4.988-2.613Q20 15.075 20 12t-2.012-5.313Q15.975 4.45 13 4.075Z"/></symbol><symbol id="star_rate" viewBox="0 0 24 24"><path d="M9.6 16.65 12 14.8l2.4 1.85-.9-3.05 2.25-1.6h-2.8L12 8.9l-.95 3.1h-2.8l2.25 1.6ZM5.825 22l2.325-7.6L2 10h7.6L12 2l2.4 8H22l-6.15 4.4 2.325 7.6L12 17.3ZM12 12.775Z"/></symbol><symbol id="star_rate_fill1" viewBox="0 0 24 24"><path d="m5.825 22 2.325-7.6L2 10h7.6L12 2l2.4 8H22l-6.15 4.4 2.325 7.6L12 17.3Z"/></symbol><symbol id="podcasts" viewBox="0 0 24 24"><path d="M11 22v-8.275q-.45-.275-.725-.713Q10 12.575 10 12q0-.825.588-1.413Q11.175 10 12 10t1.413.587Q14 11.175 14 12q0 .575-.275 1.025-.275.45-.725.7V22Zm-5.9-2.75q-1.425-1.375-2.262-3.238Q2 14.15 2 12q0-2.075.788-3.9.787-1.825 2.137-3.175 1.35-1.35 3.175-2.138Q9.925 2 12 2t3.9.787q1.825.788 3.175 2.138 1.35 1.35 2.137 3.175Q22 9.925 22 12q0 2.15-.837 4.025-.838 1.875-2.263 3.225l-1.4-1.4q1.15-1.1 1.825-2.612Q20 13.725 20 12q0-3.35-2.325-5.675Q15.35 4 12 4 8.65 4 6.325 6.325 4 8.65 4 12q0 1.725.675 3.225t1.85 2.6Zm2.825-2.825q-.875-.825-1.4-1.963Q6 13.325 6 12q0-2.5 1.75-4.25T12 6q2.5 0 4.25 1.75T18 12q0 1.325-.525 2.475-.525 1.15-1.4 1.95L14.65 15q.625-.575.987-1.35Q16 12.875 16 12q0-1.65-1.175-2.825Q13.65 8 12 8q-1.65 0-2.825 1.175Q8 10.35 8 12q0 .9.363 1.662.362.763.987 1.338Z"/></symbol><symbol id="feed" viewBox="0 0 24 24"><path d="M5 21q-.825 0-1.413-.587Q3 19.825 3 19V5q0-.825.587-1.413Q4.175 3 5 3h11l5 5v11q0 .825-.587 1.413Q19.825 21 19 21Zm0-2h14V9h-4V5H5v14Zm2-2h10v-2H7Zm0-8h5V7H7Zm0 4h10v-2H7ZM5 5v4-4 14V5Z"/></symbol></svg>
