<svg xmlns="http://www.w3.org/2000/svg" style="display:none" width="0" height="0"><symbol id="home_work" viewBox="0 0 24 24"><path d="M1,11v10h6v-5h2v5h6V11L8,6L1,11z M13,19h-2v-5H5v5H3v-6.97l5-3.57l5,3.57V19z"/><rect height="2" width="2" x="17" y="7"/><rect height="2" width="2" x="17" y="11"/><rect height="2" width="2" x="17" y="15"/><polygon points="10,3 10,4.97 12,6.4 12,5 21,5 21,19 17,19 17,21 23,21 23,3"/></symbol><symbol id="more_vert" viewBox="0 0 24 24"><path d="M12 8c1.1 0 2-.9 2-2s-.9-2-2-2-2 .9-2 2 .9 2 2 2zm0 2c-1.1 0-2 .9-2 2s.9 2 2 2 2-.9 2-2-.9-2-2-2zm0 6c-1.1 0-2 .9-2 2s.9 2 2 2 2-.9 2-2-.9-2-2-2z"/></symbol><symbol id="arrow_back_ios" viewBox="0 0 24 24"><path d="M17.51 3.87L15.73 2.1 5.84 12l9.9 9.9 1.77-1.77L9.38 12l8.13-8.13z"/></symbol><symbol id="first_page" viewBox="0 0 24 24"><path d="M18.41 16.59L13.82 12l4.59-4.59L17 6l-6 6 6 6 1.41-1.41zM6 6h2v12H6V6z"/></symbol><symbol id="chevron_left" viewBox="0 0 24 24"><path d="M15.41 7.41L14 6l-6 6 6 6 1.41-1.41L10.83 12l4.58-4.59z"/></symbol><symbol id="chevron_right" viewBox="0 0 24 24"><path d="M10 6L8.59 7.41 13.17 12l-4.58 4.59L10 18l6-6-6-6z"/></symbol><symbol id="last_page" viewBox="0 0 24 24"><path d="M5.59 7.41L10.18 12l-4.59 4.59L7 18l6-6-6-6-1.41 1.41zM16 6h2v12h-2V6z"/></symbol><symbol id="close" viewBox="0 0 24 24"><path d="M19 6.41L17.59 5 12 10.59 6.41 5 5 6.41 10.59 12 5 17.59 6.41 19 12 13.41 17.59 19 19 17.59 13.41 12 19 6.41z"/></symbol><symbol id="settings" viewBox="0 0 24 24"><path d="M19.43 12.98c.04-.32.07-.64.07-.98 0-.34-.03-.66-.07-.98l2.11-1.65c.19-.15.24-.42.12-.64l-2-3.46c-.09-.16-.26-.25-.44-.25-.06 0-.12.01-.17.03l-2.49 1c-.52-.4-1.08-.73-1.69-.98l-.38-2.65C14.46 2.18 14.25 2 14 2h-4c-.25 0-.46.18-.49.42l-.38 2.65c-.61.25-1.17.59-1.69.98l-2.49-1c-.06-.02-.12-.03-.18-.03-.17 0-.34.09-.43.25l-2 3.46c-.13.22-.07.49.12.64l2.11 1.65c-.04.32-.07.65-.07.98 0 .33.03.66.07.98l-2.11 1.65c-.19.15-.24.42-.12.64l2 3.46c.09.16.26.25.44.25.06 0 .12-.01.17-.03l2.49-1c.52.4 1.08.73 1.69.98l.38 2.65c.03.24.24.42.49.42h4c.25 0 .46-.18.49-.42l.38-2.65c.61-.25 1.17-.59 1.69-.98l2.49 1c.06.02.12.03.18.03.17 0 .34-.09.43-.25l2-3.46c.12-.22.07-.49-.12-.64l-2.11-1.65zm-1.98-1.71c.04.31.05.52.05.73 0 .21-.02.43-.05.73l-.14 1.13.89.7 1.08.84-.7 1.21-1.27-.51-1.04-.42-.9.68c-.43.32-.84.56-1.25.73l-1.06.43-.16 1.13-.2 1.35h-1.4l-.19-1.35-.16-1.13-1.06-.43c-.43-.18-.83-.41-1.23-.71l-.91-.7-1.06.43-1.27.51-.7-1.21 1.08-.84.89-.7-.14-1.13c-.03-.31-.05-.54-.05-.74s.02-.43.05-.73l.14-1.13-.89-.7-1.08-.84.7-1.21 1.27.51 1.04.42.9-.68c.43-.32.84-.56 1.25-.73l1.06-.43.16-1.13.2-1.35h1.39l.19 1.35.16 1.13 1.06.43c.43.18.83.41 1.23.71l.91.7 1.06-.43 1.27-.51.7 1.21-1.07.85-.89.7.14 1.13zM12 8c-2.21 0-4 1.79-4 4s1.79 4 4 4 4-1.79 4-4-1.79-4-4-4zm0 6c-1.1 0-2-.9-2-2s.9-2 2-2 2 .9 2 2-.9 2-2 2z"/></symbol><symbol id="delete" viewBox="0 0 24 24"><path d="M16 9v10H8V9h8m-1.5-6h-5l-1 1H5v2h14V4h-3.5l-1-1zM18 7H6v12c0 1.1.9 2 2 2h8c1.1 0 2-.9 2-2V7z"/></symbol><symbol id="report_problem" viewBox="0 0 24 24"><path d="M12 5.99L19.53 19H4.47L12 5.99M12 2L1 21h22L12 2zm1 14h-2v2h2v-2zm0-6h-2v4h2v-4z"/></symbol><symbol id="info" viewBox="0 0 24 24"><path d="M11 7h2v2h-2zm0 4h2v6h-2zm1-9C6.48 2 2 6.48 2 12s4.48 10 10 10 10-4.48 10-10S17.52 2 12 2zm0 18c-4.41 0-8-3.59-8-8s3.59-8 8-8 8 3.59 8 8-3.59 8-8 8z"/></symbol><symbol id="favorite" viewBox="0 0 24 24"><path d="M12 21.35l-1.45-1.32C5.4 15.36 2 12.28 2 8.5 2 5.42 4.42 3 7.5 3c1.74 0 3.41.81 4.5 2.09C13.09 3.81 14.76 3 16.5 3 19.58 3 22 5.42 22 8.5c0 3.78-3.4 6.86-8.55 11.54L12 21.35z"/></symbol><symbol id="favorite_border" viewBox="0 0 24 24"><path d="M16.5 3c-1.74 0-3.41.81-4.5 2.09C10.91 3.81 9.24 3 7.5 3 4.42 3 2 5.42 2 8.5c0 3.78 3.4 6.86 8.55 11.54L12 21.35l1.45-1.32C18.6 15.36 22 12.28 22 8.5 22 5.42 19.58 3 16.5 3zm-4.4 15.55l-.1.1-.1-.1C7.14 14.24 4 11.39 4 8.5 4 6.5 5.5 5 7.5 5c1.54 0 3.04.99 3.57 2.36h1.87C13.46 5.99 14.96 5 16.5 5c2 0 3.5 1.5 3.5 3.5 0 2.89-3.14 5.74-7.9 10.05z"/></symbol><symbol id="devices" viewBox="0 0 24 24"><path d="M4 6h18V4H4c-1.1 0-2 .9-2 2v11H0v3h14v-3H4V6zm19 2h-6c-.55 0-1 .45-1 1v10c0 .55.45 1 1 1h6c.55 0 1-.45 1-1V9c0-.55-.45-1-1-1zm-1 9h-4v-7h4v7z"/></symbol><symbol id="storage" viewBox="0 0 24 24"><path d="M2 20h20v-4H2v4zm2-3h2v2H4v-2zM2 4v4h20V4H2zm4 3H4V5h2v2zm-4 7h20v-4H2v4zm2-3h2v2H4v-2z"/></symbol><symbol id="file_download" viewBox="0 0 24 24"><path d="M18,15v3H6v-3H4v3c0,1.1,0.9,2,2,2h12c1.1,0,2-0.9,2-2v-3H18z M17,11l-1.41-1.41L13,12.17V4h-2v8.17L8.41,9.59L7,11l5,5 L17,11z"/></symbol><symbol id="upload_file" viewBox="0 0 24 24"><path d="M14,2H6C4.9,2,4.01,2.9,4.01,4L4,20c0,1.1,0.89,2,1.99,2H18c1.1,0,2-0.9,2-2V8L14,2z M18,20H6V4h7v5h5V20z M8,15.01 l1.41,1.41L11,14.84V19h2v-4.16l1.59,1.59L16,15.01L12.01,11L8,15.01z"/></symbol><symbol id="folder" viewBox="0 0 24 24"><path d="M9.17 6l2 2H20v10H4V6h5.17M10 4H4c-1.1 0-1.99.9-1.99 2L2 18c0 1.1.9 2 2 2h16c1.1 0 2-.9 2-2V8c0-1.1-.9-2-2-2h-8l-2-2z"/></symbol><symbol id="folder_open" viewBox="0 0 24 24"><path d="M20 6h-8l-2-2H4c-1.1 0-1.99.9-1.99 2L2 18c0 1.1.9 2 2 2h16c1.1 0 2-.9 2-2V8c0-1.1-.9-2-2-2zm0 12H4V8h16v10z"/></symbol><symbol id="drive_file_rename_outline" viewBox="0 0 24 24"><polygon points="15,16 11,20 21,20 21,16"/><path d="M12.06,7.19L3,16.25V20h3.75l9.06-9.06L12.06,7.19z M5.92,18H5v-0.92l7.06-7.06l0.92,0.92L5.92,18z"/><path d="M18.71,8.04c0.39-0.39,0.39-1.02,0-1.41l-2.34-2.34C16.17,4.09,15.92,4,15.66,4c-0.25,0-0.51,0.1-0.7,0.29l-1.83,1.83 l3.75,3.75L18.71,8.04z"/></symbol><symbol id="mode_edit" viewBox="0 0 24 24"><path d="M3,21l3.75,0L17.81,9.94l-3.75-3.75L3,17.25L3,21z M5,18.08l9.06-9.06l0.92,0.92L5.92,19L5,19L5,18.08z"/><path d="M18.37,3.29c-0.39-0.39-1.02-0.39-1.41,0l-1.83,1.83l3.75,3.75l1.83-1.83c0.39-0.39,0.39-1.02,0-1.41L18.37,3.29z"/></symbol><symbol id="checklist" viewBox="0 0 24 24"><path d="M22,7h-9v2h9V7z M22,15h-9v2h9V15z M5.54,11L2,7.46l1.41-1.41l2.12,2.12l4.24-4.24l1.41,1.41L5.54,11z M5.54,19L2,15.46 l1.41-1.41l2.12,2.12l4.24-4.24l1.41,1.41L5.54,19z"/></symbol><symbol id="insert_drive_file" viewBox="0 0 24 24"><path d="M14 2H6c-1.1 0-1.99.9-1.99 2L4 20c0 1.1.89 2 1.99 2H18c1.1 0 2-.9 2-2V8l-6-6zM6 20V4h7v5h5v11H6z"/></symbol><symbol id="insert_photo" viewBox="0 0 24 24"><path d="M19 5v14H5V5h14m0-2H5c-1.1 0-2 .9-2 2v14c0 1.1.9 2 2 2h14c1.1 0 2-.9 2-2V5c0-1.1-.9-2-2-2zm-4.86 8.86l-3 3.87L9 13.14 6 17h12l-3.86-5.14z"/></symbol><symbol id="add" viewBox="0 0 24 24"><path d="M19 13h-6v6h-2v-6H5v-2h6V5h2v6h6v2z"/></symbol><symbol id="content_copy" viewBox="0 0 24 24"><path d="M16 1H4c-1.1 0-2 .9-2 2v14h2V3h12V1zm3 4H8c-1.1 0-2 .9-2 2v14c0 1.1.9 2 2 2h11c1.1 0 2-.9 2-2V7c0-1.1-.9-2-2-2zm0 16H8V7h11v14z"/></symbol><symbol id="connected_tv" viewBox="0 0 24 24"><path d="M20,3H4C2.9,3,2,3.9,2,5v12c0,1.1,0.9,2,2,2h4v2h8v-2h4c1.1,0,1.99-0.9,1.99-2L22,5C22,3.9,21.1,3,20,3z M20,17H4V5h16V17 z M5,14v2h2C7,14.89,6.11,14,5,14z M5,11v1.43c1.97,0,3.57,1.6,3.57,3.57H10C10,13.24,7.76,11,5,11z M5,8v1.45 c3.61,0,6.55,2.93,6.55,6.55H13C13,11.58,9.41,8,5,8z"/></symbol><symbol id="speaker" viewBox="0 0 24 24"><path d="M17 2H7c-1.1 0-2 .9-2 2v16c0 1.1.9 1.99 2 1.99L17 22c1.1 0 2-.9 2-2V4c0-1.1-.9-2-2-2zM7 20V4h10v16H7zm5-11c1.1 0 2-.9 2-2s-.9-2-2-2c-1.11 0-2 .9-2 2s.89 2 2 2zm0 2c-2.21 0-4 1.79-4 4s1.79 4 4 4 4-1.79 4-4-1.79-4-4-4zm0 6c-1.1 0-2-.9-2-2s.9-2 2-2 2 .9 2 2-.9 2-2 2z"/></symbol><symbol id="play_circle" viewBox="0 0 24 24"><path d="M12,2C6.48,2,2,6.48,2,12s4.48,10,10,10s10-4.48,10-10S17.52,2,12,2z M12,20c-4.41,0-8-3.59-8-8s3.59-8,8-8s8,3.59,8,8 S16.41,20,12,20z M9.5,16.5l7-4.5l-7-4.5V16.5z"/></symbol><symbol id="stop_circle" viewBox="0 0 24 24"><path d="M12,2C6.48,2,2,6.48,2,12c0,5.52,4.48,10,10,10s10-4.48,10-10C22,6.48,17.52,2,12,2z M12,20c-4.42,0-8-3.58-8-8s3.58-8,8-8 s8,3.58,8,8S16.42,20,12,20z M16,16H8V8h8V16z"/></symbol><symbol id="pause_circle" viewBox="0 0 24 24"><path d="M9,16h2V8H9V16z M12,2C6.48,2,2,6.48,2,12s4.48,10,10,10s10-4.48,10-10S17.52,2,12,2z M12,20c-4.41,0-8-3.59-8-8 s3.59-8,8-8s8,3.59,8,8S16.41,20,12,20z M13,16h2V8h-2V16z"/></symbol><symbol id="play_arrow" viewBox="0 0 24 24"><path d="M10 8.64L15.27 12 10 15.36V8.64M8 5v14l11-7L8 5z"/></symbol><symbol id="pause" viewBox="0 0 24 24"><path d="M6 19h4V5H6v14zm8-14v14h4V5h-4z"/></symbol><symbol id="not_interested" viewBox="0 0 24 24"><path d="M12 2C6.48 2 2 6.48 2 12s4.48 10 10 10 10-4.48 10-10S17.52 2 12 2zm0 18c-4.42 0-8-3.58-8-8 0-1.85.63-3.55 1.69-4.9L16.9 18.31C15.55 19.37 13.85 20 12 20zm6.31-3.1L7.1 5.69C8.45 4.63 10.15 4 12 4c4.42 0 8 3.58 8 8 0 1.85-.63 3.55-1.69 4.9z"/></symbol><symbol id="playlist_add" viewBox="0 0 24 24"><path d="M14,10H3v2h11V10z M14,6H3v2h11V6z M18,14v-4h-2v4h-4v2h4v4h2v-4h4v-2H18z M3,16h7v-2H3V16z"/></symbol><symbol id="playlist_play" viewBox="0 0 24 24"><rect height="2" width="11" x="3" y="10"/><rect height="2" width="11" x="3" y="6"/><rect height="2" width="7" x="3" y="14"/><polygon points="16,13 16,21 22,17"/></symbol><symbol id="skip_previous" viewBox="0 0 24 24"><path d="M6 6h2v12H6zm3.5 6l8.5 6V6l-8.5 6zm6.5 2.14L12.97 12 16 9.86v4.28z"/></symbol><symbol id="skip_next" viewBox="0 0 24 24"><path d="M6 18l8.5-6L6 6v12zm2-8.14L11.03 12 8 14.14V9.86zM16 6h2v12h-2z"/></symbol><symbol id="shuffle" viewBox="0 0 24 24"><path d="M10.59 9.17L5.41 4 4 5.41l5.17 5.17 1.42-1.41zM14.5 4l2.04 2.04L4 18.59 5.41 20 17.96 7.46 20 9.5V4h-5.5zm.33 9.41l-1.41 1.41 3.13 3.13L14.5 20H20v-5.5l-2.04 2.04-3.13-3.13z"/></symbol><symbol id="repeat" viewBox="0 0 24 24"><path d="M7 7h10v3l4-4-4-4v3H5v6h2V7zm10 10H7v-3l-4 4 4 4v-3h12v-6h-2v4z"/></symbol><symbol id="volume_off" viewBox="0 0 24 24"><path d="M4.34 2.93L2.93 4.34 7.29 8.7 7 9H3v6h4l5 5v-6.59l4.18 4.18c-.65.49-1.38.88-2.18 1.11v2.06c1.34-.3 2.57-.92 3.61-1.75l2.05 2.05 1.41-1.41L4.34 2.93zM10 15.17L7.83 13H5v-2h2.83l.88-.88L10 11.41v3.76zM19 12c0 .82-.15 1.61-.41 2.34l1.53 1.53c.56-1.17.88-2.48.88-3.87 0-4.28-2.99-7.86-7-8.77v2.06c2.89.86 5 3.54 5 6.71zm-7-8l-1.88 1.88L12 7.76zm4.5 8c0-1.77-1.02-3.29-2.5-4.03v1.79l2.48 2.48c.01-.08.02-.16.02-.24z"/></symbol><symbol id="volume_mute" viewBox="0 0 24 24"><path d="M14 8.83v6.34L11.83 13H9v-2h2.83L14 8.83M16 4l-5 5H7v6h4l5 5V4z"/></symbol><symbol id="volume_down" viewBox="0 0 24 24"><path d="M16 7.97v8.05c1.48-.73 2.5-2.25 2.5-4.02 0-1.77-1.02-3.29-2.5-4.03zM5 9v6h4l5 5V4L9 9H5zm7-.17v6.34L9.83 13H7v-2h2.83L12 8.83z"/></symbol><symbol id="volume_up" viewBox="0 0 24 24"><path d="M3 9v6h4l5 5V4L7 9H3zm7-.17v6.34L7.83 13H5v-2h2.83L10 8.83zM16.5 12c0-1.77-1.02-3.29-2.5-4.03v8.05c1.48-.73 2.5-2.25 2.5-4.02zM14 3.23v2.06c2.89.86 5 3.54 5 6.71s-2.11 5.85-5 6.71v2.06c4.01-.91 7-4.49 7-8.77 0-4.28-2.99-7.86-7-8.77z"/></symbol><symbol id="queue_music" viewBox="0 0 24 24"><path d="M22,6h-5v8.18C16.69,14.07,16.35,14,16,14c-1.66,0-3,1.34-3,3s1.34,3,3,3s3-1.34,3-3V8h3V6z M15,6H3v2h12V6z M15,10H3v2h12 V10z M11,14H3v2h8V14z"/></symbol><symbol id="featured_play_list" viewBox="0 0 24 24"><path d="M21 3H3c-1.1 0-2 .9-2 2v14c0 1.1.9 2 2 2h18c1.1 0 2-.9 2-2V5c0-1.1-.9-2-2-2zm0 16H3V5h18v14zM5 10h9v2H5zm0-3h9v2H5z"/></symbol><symbol id="video_library" viewBox="0 0 24 24"><path d="M4 6H2v14c0 1.1.9 2 2 2h14v-2H4V6zm16-4H8c-1.1 0-2 .9-2 2v12c0 1.1.9 2 2 2h12c1.1 0 2-.9 2-2V4c0-1.1-.9-2-2-2zm0 14H8V4h12v12zM12 5.5v9l6-4.5z"/></symbol><symbol id="audio_file" viewBox="0 0 24 24"><path d="M14,2H6C4.9,2,4,2.9,4,4v16c0,1.1,0.9,2,2,2h12c1.1,0,2-0.9,2-2V8L14,2z M6,20V4h7v5h5v11H6z M16,11h-4v3.88 c-0.36-0.24-0.79-0.38-1.25-0.38c-1.24,0-2.25,1.01-2.25,2.25c0,1.24,1.01,2.25,2.25,2.25S13,17.99,13,16.75V13h3V11z"/></symbol><symbol id="video_file" viewBox="0 0 24 24"><path d="M14,2H6C4.9,2,4,2.9,4,4v16c0,1.1,0.9,2,2,2h12c1.1,0,2-0.9,2-2V8L14,2z M6,20V4h7v5h5v11H6z M14,14l2-1.06v4.12L14,16v1 c0,0.55-0.45,1-1,1H9c-0.55,0-1-0.45-1-1v-4c0-0.55,0.45-1,1-1h4c0.55,0,1,0.45,1,1V14z"/></symbol><symbol id="album" viewBox="0 0 24 24"><path d="M12 2C6.48 2 2 6.48 2 12s4.48 10 10 10 10-4.48 10-10S17.52 2 12 2zm0 18c-4.41 0-8-3.59-8-8s3.59-8 8-8 8 3.59 8 8-3.59 8-8 8zm0-12.5c-2.49 0-4.5 2.01-4.5 4.5s2.01 4.5 4.5 4.5 4.5-2.01 4.5-4.5-2.01-4.5-4.5-4.5zm0 5.5c-.55 0-1-.45-1-1s.45-1 1-1 1 .45 1 1-.45 1-1 1z"/></symbol><symbol id="movie" viewBox="0 0 24 24"><path d="M4 6.47L5.76 10H20v8H4V6.47M22 4h-4l2 4h-3l-2-4h-2l2 4h-3l-2-4H8l2 4H7L5 4H4c-1.1 0-1.99.9-1.99 2L2 18c0 1.1.9 2 2 2h16c1.1 0 2-.9 2-2V4z"/></symbol><symbol id="audiotrack" viewBox="0 0 24 24"><path d="M12 3v10.55c-.59-.34-1.27-.55-2-.55-2.21 0-4 1.79-4 4s1.79 4 4 4 4-1.79 4-4V7h4V3h-6zm-2 16c-1.1 0-2-.9-2-2s.9-2 2-2 2 .9 2 2-.9 2-2 2z"/></symbol><symbol id="star_border" viewBox="0 0 24 24"><path d="M22 9.24l-7.19-.62L12 2 9.19 8.63 2 9.24l5.46 4.73L5.82 21 12 17.27 18.18 21l-1.63-7.03L22 9.24zM12 15.4l-3.76 2.27 1-4.28-3.32-2.88 4.38-.38L12 6.1l1.71 4.04 4.38.38-3.32 2.88 1 4.28L12 15.4z"/></symbol><symbol id="star" viewBox="0 0 24 24"><path d="M12 17.27 18.18 21l-1.64-7.03L22 9.24l-7.19-.61L12 2 9.19 8.63 2 9.24l5.46 4.73L5.82 21 12 17.27z"/></symbol><symbol id="podcasts" viewBox="0 0 24 24"><path d="M14,12c0,0.74-0.4,1.38-1,1.72V22h-2v-8.28c-0.6-0.35-1-0.98-1-1.72c0-1.1,0.9-2,2-2S14,10.9,14,12z M12,6 c-3.31,0-6,2.69-6,6c0,1.74,0.75,3.31,1.94,4.4l1.42-1.42C8.53,14.25,8,13.19,8,12c0-2.21,1.79-4,4-4s4,1.79,4,4 c0,1.19-0.53,2.25-1.36,2.98l1.42,1.42C17.25,15.31,18,13.74,18,12C18,8.69,15.31,6,12,6z M12,2C6.48,2,2,6.48,2,12 c0,2.85,1.2,5.41,3.11,7.24l1.42-1.42C4.98,16.36,4,14.29,4,12c0-4.41,3.59-8,8-8s8,3.59,8,8c0,2.29-0.98,4.36-2.53,5.82l1.42,1.42 C20.8,17.41,22,14.85,22,12C22,6.48,17.52,2,12,2z"/></symbol><symbol id="feed" viewBox="0 0 24 24"><path d="M16,3H5C3.9,3,3,3.9,3,5v14c0,1.1,0.9,2,2,2h14c1.1,0,2-0.9,2-2V8L16,3z M19,19H5V5h10v4h4V19z M7,17h10v-2H7V17z M12,7H7 v2h5V7z M7,13h10v-2H7V13z"/></symbol></svg>
