<svg xmlns="http://www.w3.org/2000/svg" style="display:none" width="0" height="0"><symbol id="home_work" viewBox="0 -960 960 960"><path d="M680-600h80v-80h-80v80Zm0 160h80v-80h-80v80Zm0 160h80v-80h-80v80Zm0 160v-80h160v-560H480v56l-80-58v-78h520v720H680Zm-640 0v-400l280-200 280 200v400H360v-200h-80v200H40Zm80-80h80v-200h240v200h80v-280L320-622 120-480v280Zm560-360ZM440-200v-200H200v200-200h240v200Z"/></symbol><symbol id="more_vert" viewBox="0 -960 960 960"><path d="M480-160q-33 0-56.5-23.5T400-240q0-33 23.5-56.5T480-320q33 0 56.5 23.5T560-240q0 33-23.5 56.5T480-160Zm0-240q-33 0-56.5-23.5T400-480q0-33 23.5-56.5T480-560q33 0 56.5 23.5T560-480q0 33-23.5 56.5T480-400Zm0-240q-33 0-56.5-23.5T400-720q0-33 23.5-56.5T480-800q33 0 56.5 23.5T560-720q0 33-23.5 56.5T480-640Z"/></symbol><symbol id="arrow_back_ios_new" viewBox="0 -960 960 960"><path d="M640-80 240-480l400-400 71 71-329 329 329 329-71 71Z"/></symbol><symbol id="first_page" viewBox="0 -960 960 960"><path d="M240-240v-480h80v480h-80Zm440 0L440-480l240-240 56 56-184 184 184 184-56 56Z"/></symbol><symbol id="chevron_left" viewBox="0 -960 960 960"><path d="M560-240 320-480l240-240 56 56-184 184 184 184-56 56Z"/></symbol><symbol id="chevron_right" viewBox="0 -960 960 960"><path d="M504-480 320-664l56-56 240 240-240 240-56-56 184-184Z"/></symbol><symbol id="last_page" viewBox="0 -960 960 960"><path d="m280-240-56-56 184-184-184-184 56-56 240 240-240 240Zm360 0v-480h80v480h-80Z"/></symbol><symbol id="close" viewBox="0 -960 960 960"><path d="m256-200-56-56 224-224-224-224 56-56 224 224 224-224 56 56-224 224 224 224-56 56-224-224-224 224Z"/></symbol><symbol id="settings" viewBox="0 -960 960 960"><path d="m370-80-16-128q-13-5-24.5-12T307-235l-119 50L78-375l103-78q-1-7-1-13.5v-27q0-6.5 1-13.5L78-585l110-190 119 50q11-8 23-15t24-12l16-128h220l16 128q13 5 24.5 12t22.5 15l119-50 110 190-103 78q1 7 1 13.5v27q0 6.5-2 13.5l103 78-110 190-118-50q-11 8-23 15t-24 12L590-80H370Zm70-80h79l14-106q31-8 57.5-23.5T639-327l99 41 39-68-86-65q5-14 7-29.5t2-31.5q0-16-2-31.5t-7-29.5l86-65-39-68-99 42q-22-23-48.5-38.5T533-694l-13-106h-79l-14 106q-31 8-57.5 23.5T321-633l-99-41-39 68 86 64q-5 15-7 30t-2 32q0 16 2 31t7 30l-86 65 39 68 99-42q22 23 48.5 38.5T427-266l13 106Zm42-180q58 0 99-41t41-99q0-58-41-99t-99-41q-59 0-99.5 41T342-480q0 58 40.5 99t99.5 41Zm-2-140Z"/></symbol><symbol id="delete" viewBox="0 -960 960 960"><path d="M280-120q-33 0-56.5-23.5T200-200v-520h-40v-80h200v-40h240v40h200v80h-40v520q0 33-23.5 56.5T680-120H280Zm400-600H280v520h400v-520ZM360-280h80v-360h-80v360Zm160 0h80v-360h-80v360ZM280-720v520-520Z"/></symbol><symbol id="delete_forever" viewBox="0 -960 960 960"><path d="m376-300 104-104 104 104 56-56-104-104 104-104-56-56-104 104-104-104-56 56 104 104-104 104 56 56Zm-96 180q-33 0-56.5-23.5T200-200v-520h-40v-80h200v-40h240v40h200v80h-40v520q0 33-23.5 56.5T680-120H280Zm400-600H280v520h400v-520Zm-400 0v520-520Z"/></symbol><symbol id="warning" viewBox="0 -960 960 960"><path d="m40-120 440-760 440 760H40Zm138-80h604L480-720 178-200Zm302-40q17 0 28.5-11.5T520-280q0-17-11.5-28.5T480-320q-17 0-28.5 11.5T440-280q0 17 11.5 28.5T480-240Zm-40-120h80v-200h-80v200Zm40-100Z"/></symbol><symbol id="info" viewBox="0 -960 960 960"><path d="M440-280h80v-240h-80v240Zm40-320q17 0 28.5-11.5T520-640q0-17-11.5-28.5T480-680q-17 0-28.5 11.5T440-640q0 17 11.5 28.5T480-600Zm0 520q-83 0-156-31.5T197-197q-54-54-85.5-127T80-480q0-83 31.5-156T197-763q54-54 127-85.5T480-880q83 0 156 31.5T763-763q54 54 85.5 127T880-480q0 83-31.5 156T763-197q-54 54-127 85.5T480-80Zm0-80q134 0 227-93t93-227q0-134-93-227t-227-93q-134 0-227 93t-93 227q0 134 93 227t227 93Zm0-320Z"/></symbol><symbol id="favorite" viewBox="0 -960 960 960"><path d="m480-120-58-52q-101-91-167-157T150-447.5Q111-500 95.5-544T80-634q0-94 63-157t157-63q52 0 99 22t81 62q34-40 81-62t99-22q94 0 157 63t63 157q0 46-15.5 90T810-447.5Q771-395 705-329T538-172l-58 52Zm0-108q96-86 158-147.5t98-107q36-45.5 50-81t14-70.5q0-60-40-100t-100-40q-47 0-87 26.5T518-680h-76q-15-41-55-67.5T300-774q-60 0-100 40t-40 100q0 35 14 70.5t50 81q36 45.5 98 107T480-228Zm0-273Z"/></symbol><symbol id="favorite_fill1" viewBox="0 -960 960 960"><path d="m480-120-58-52q-101-91-167-157T150-447.5Q111-500 95.5-544T80-634q0-94 63-157t157-63q52 0 99 22t81 62q34-40 81-62t99-22q94 0 157 63t63 157q0 46-15.5 90T810-447.5Q771-395 705-329T538-172l-58 52Z"/></symbol><symbol id="devices" viewBox="0 -960 960 960"><path d="M80-160v-120h80v-440q0-33 23.5-56.5T240-800h600v80H240v440h240v120H80Zm520 0q-17 0-28.5-11.5T560-200v-400q0-17 11.5-28.5T600-640h240q17 0 28.5 11.5T880-600v400q0 17-11.5 28.5T840-160H600Zm40-120h160v-280H640v280Zm0 0h160-160Z"/></symbol><symbol id="important_devices" viewBox="0 -960 960 960"><path d="M680-120q-17 0-28.5-11.5T640-160v-318q0-17 11.5-28.5T680-518h160q17 0 28.5 11.5T880-478v318q0 17-11.5 28.5T840-120H680Zm0-80h160v-238H680v238Zm-360 80v-80h80v-80H160q-33 0-56.5-23.5T80-360v-400q0-33 23.5-56.5T160-840h560q33 0 56.5 23.5T800-760v162h-80v-162H160v400h400v80h-80v80h80v80H320Zm28-290 92-70 92 70-34-114 92-74H476l-36-112-36 112H290l92 74-34 114Zm92-150Z"/></symbol><symbol id="bookmark_added" viewBox="0 -960 960 960"><path d="M713-600 600-713l56-57 57 57 141-142 57 57-198 198ZM200-120v-640q0-33 23.5-56.5T280-840h240v80H280v518l200-86 200 86v-278h80v400L480-240 200-120Zm80-640h240-240Z"/></symbol><symbol id="heart_check" viewBox="0 -960 960 960"><path d="M718-313 604-426l57-56 57 56 141-141 57 56-198 198ZM440-501Zm0 381L313-234q-72-65-123.5-116t-85-96q-33.5-45-49-87T40-621q0-94 63-156.5T260-840q52 0 99 22t81 62q34-40 81-62t99-22q81 0 136 45.5T831-680h-85q-18-40-53-60t-73-20q-51 0-88 27.5T463-660h-46q-31-45-70.5-72.5T260-760q-57 0-98.5 39.5T120-621q0 33 14 67t50 78.5q36 44.5 98 104T440-228q26-23 61-53t56-50l9 9 19.5 19.5L605-283l9 9q-22 20-56 49.5T498-172l-58 52Z"/></symbol><symbol id="sentiment_very_dissatisfied" viewBox="0 -960 960 960"><path d="M480-420q-68 0-123.5 38.5T276-280h408q-25-63-80.5-101.5T480-420Zm-168-60 44-42 42 42 42-42-42-42 42-44-42-42-42 42-44-42-42 42 42 44-42 42 42 42Zm250 0 42-42 44 42 42-42-42-42 42-44-42-42-44 42-42-42-42 42 42 44-42 42 42 42ZM480-80q-83 0-156-31.5T197-197q-54-54-85.5-127T80-480q0-83 31.5-156T197-763q54-54 127-85.5T480-880q83 0 156 31.5T763-763q54 54 85.5 127T880-480q0 83-31.5 156T763-197q-54 54-127 85.5T480-80Zm0-400Zm0 320q134 0 227-93t93-227q0-134-93-227t-227-93q-134 0-227 93t-93 227q0 134 93 227t227 93Z"/></symbol><symbol id="storage" viewBox="0 -960 960 960"><path d="M120-160v-160h720v160H120Zm80-40h80v-80h-80v80Zm-80-440v-160h720v160H120Zm80-40h80v-80h-80v80Zm-80 280v-160h720v160H120Zm80-40h80v-80h-80v80Z"/></symbol><symbol id="dark_mode" viewBox="0 -960 960 960"><path d="M480-120q-150 0-255-105T120-480q0-150 105-255t255-105q14 0 27.5 1t26.5 3q-41 29-65.5 75.5T444-660q0 90 63 153t153 63q55 0 101-24.5t75-65.5q2 13 3 26.5t1 27.5q0 150-105 255T480-120Zm0-80q88 0 158-48.5T740-375q-20 5-40 8t-40 3q-123 0-209.5-86.5T364-660q0-20 3-40t8-40q-78 32-126.5 102T200-480q0 116 82 198t198 82Zm-10-270Z"/></symbol><symbol id="light_mode" viewBox="0 -960 960 960"><path d="M480-360q50 0 85-35t35-85q0-50-35-85t-85-35q-50 0-85 35t-35 85q0 50 35 85t85 35Zm0 80q-83 0-141.5-58.5T280-480q0-83 58.5-141.5T480-680q83 0 141.5 58.5T680-480q0 83-58.5 141.5T480-280ZM200-440H40v-80h160v80Zm720 0H760v-80h160v80ZM440-760v-160h80v160h-80Zm0 720v-160h80v160h-80ZM256-650l-101-97 57-59 96 100-52 56Zm492 496-97-101 53-55 101 97-57 59Zm-98-550 97-101 59 57-100 96-56-52ZM154-212l101-97 55 53-97 101-59-57Zm326-268Z"/></symbol><symbol id="file_download" viewBox="0 0 24 24"><path d="M6 20q-.825 0-1.412-.587Q4 18.825 4 18v-3h2v3h12v-3h2v3q0 .825-.587 1.413Q18.825 20 18 20Zm6-4-5-5 1.4-1.45 2.6 2.6V4h2v8.15l2.6-2.6L17 11Z"/></symbol><symbol id="upload_file" viewBox="0 -960 960 960"><path d="M440-200h80v-167l64 64 56-57-160-160-160 160 57 56 63-63v167ZM240-80q-33 0-56.5-23.5T160-160v-640q0-33 23.5-56.5T240-880h320l240 240v480q0 33-23.5 56.5T720-80H240Zm280-520v-200H240v640h480v-440H520ZM240-800v200-200 640-640Z"/></symbol><symbol id="folder" viewBox="0 -960 960 960"><path d="M160-160q-33 0-56.5-23.5T80-240v-480q0-33 23.5-56.5T160-800h240l80 80h320q33 0 56.5 23.5T880-640v400q0 33-23.5 56.5T800-160H160Zm0-80h640v-400H447l-80-80H160v480Zm0 0v-480 480Z"/></symbol><symbol id="folder_open" viewBox="0 -960 960 960"><path d="M160-160q-33 0-56.5-23.5T80-240v-480q0-33 23.5-56.5T160-800h240l80 80h320q33 0 56.5 23.5T880-640H447l-80-80H160v480l96-320h684L837-217q-8 26-29.5 41.5T760-160H160Zm84-80h516l72-240H316l-72 240Zm0 0 72-240-72 240Zm-84-400v-80 80Z"/></symbol><symbol id="drive_file_rename_outline" viewBox="0 0 24 24"><path d="m10 21 4-4h8v4Zm-6-2h1.4l8.625-8.625-1.4-1.4L4 17.6ZM18.3 8.925l-4.25-4.2 1.4-1.4q.575-.575 1.413-.575.837 0 1.412.575l1.4 1.4q.575.575.6 1.388.025.812-.55 1.387ZM16.85 10.4 6.25 21H2v-4.25l10.6-10.6Zm-3.525-.725-.7-.7 1.4 1.4Z"/></symbol><symbol id="edit" viewBox="0 -960 960 960"><path d="M200-200h57l391-391-57-57-391 391v57Zm-80 80v-170l528-527q12-11 26.5-17t30.5-6q16 0 31 6t26 18l55 56q12 11 17.5 26t5.5 30q0 16-5.5 30.5T817-647L290-120H120Zm640-584-56-56 56 56Zm-141 85-28-29 57 57-29-28Z"/></symbol><symbol id="edit_off" viewBox="0 -960 960 960"><path d="m622-453-56-56 82-82-57-57-82 82-56-56 195-195q12-12 26.5-17.5T705-840q16 0 31 6t26 18l55 56q12 11 17.5 26t5.5 30q0 16-5.5 30.5T817-647L622-453ZM200-200h57l195-195-28-29-29-28-195 195v57ZM792-56 509-338 290-120H120v-169l219-219L56-792l57-57 736 736-57 57Zm-32-648-56-56 56 56Zm-169 56 57 57-57-57ZM424-424l-29-28 57 57-28-29Z"/></symbol><symbol id="checklist" viewBox="0 -960 960 960"><path d="M222-200 80-342l56-56 85 85 170-170 56 57-225 226Zm0-320L80-662l56-56 85 85 170-170 56 57-225 226Zm298 240v-80h360v80H520Zm0-320v-80h360v80H520Z"/></symbol><symbol id="unknown_document" viewBox="0 -960 960 960"><path d="M200-800v640-640 200-200Zm80 400h147q11-23 25.5-43t32.5-37H280v80Zm0 160h123q-3-20-3-40t3-40H280v80ZM200-80q-33 0-56.5-23.5T120-160v-640q0-33 23.5-56.5T200-880h320l240 240v92q-19-6-39-9t-41-3v-40H480v-200H200v640h227q11 23 25.5 43T485-80H200Zm480-400q83 0 141.5 58.5T880-280q0 83-58.5 141.5T680-80q-83 0-141.5-58.5T480-280q0-83 58.5-141.5T680-480Zm0 320q11 0 18.5-7.5T706-186q0-11-7.5-18.5T680-212q-11 0-18.5 7.5T654-186q0 11 7.5 18.5T680-160Zm-18-76h36v-10q0-11 6-19.5t14-16.5q14-12 22-23t8-31q0-29-19-46.5T680-400q-23 0-41.5 13.5T612-350l32 14q3-12 12.5-21t23.5-9q15 0 23.5 7.5T712-336q0 11-6 18.5T692-302q-6 6-12.5 12T668-276q-3 6-4.5 12t-1.5 14v14Z"/></symbol><symbol id="image" viewBox="0 -960 960 960"><path d="M200-120q-33 0-56.5-23.5T120-200v-560q0-33 23.5-56.5T200-840h560q33 0 56.5 23.5T840-760v560q0 33-23.5 56.5T760-120H200Zm0-80h560v-560H200v560Zm40-80h480L570-480 450-320l-90-120-120 160Zm-40 80v-560 560Z"/></symbol><symbol id="add" viewBox="0 -960 960 960"><path d="M440-440H200v-80h240v-240h80v240h240v80H520v240h-80v-240Z"/></symbol><symbol id="content_copy" viewBox="0 -960 960 960"><path d="M360-240q-33 0-56.5-23.5T280-320v-480q0-33 23.5-56.5T360-880h360q33 0 56.5 23.5T800-800v480q0 33-23.5 56.5T720-240H360Zm0-80h360v-480H360v480ZM200-80q-33 0-56.5-23.5T120-160v-560h80v560h440v80H200Zm160-240v-480 480Z"/></symbol><symbol id="connected_tv" viewBox="0 -960 960 960"><path d="M200-320h80q0-33-23.5-56.5T200-400v80Zm142 0h58q0-83-58.5-141.5T200-520v58q59 0 100.5 41.5T342-320Zm120 0h58q0-66-25-124.5t-68.5-102Q383-590 324.5-615T200-640v58q109 0 185.5 76.5T462-320ZM320-120v-80H160q-33 0-56.5-23.5T80-280v-480q0-33 23.5-56.5T160-840h640q33 0 56.5 23.5T880-760v480q0 33-23.5 56.5T800-200H640v80H320ZM160-280h640v-480H160v480Zm0 0v-480 480Z"/></symbol><symbol id="speaker" viewBox="0 -960 960 960"><path d="M680-80H280q-33 0-56.5-23.5T200-160v-640q0-33 23.5-56.5T280-880h400q33 0 56.5 23.5T760-800v640q0 33-23.5 56.5T680-80Zm0-80v-640H280v640h400ZM480-600q33 0 56.5-23.5T560-680q0-33-23.5-56.5T480-760q-33 0-56.5 23.5T400-680q0 33 23.5 56.5T480-600Zm0 400q66 0 113-47t47-113q0-66-47-113t-113-47q-66 0-113 47t-47 113q0 66 47 113t113 47Zm0-80q-33 0-56.5-23.5T400-360q0-33 23.5-56.5T480-440q33 0 56.5 23.5T560-360q0 33-23.5 56.5T480-280ZM280-800v640-640Z"/></symbol><symbol id="play_circle" viewBox="0 -960 960 960"><path d="m380-300 280-180-280-180v360ZM480-80q-83 0-156-31.5T197-197q-54-54-85.5-127T80-480q0-83 31.5-156T197-763q54-54 127-85.5T480-880q83 0 156 31.5T763-763q54 54 85.5 127T880-480q0 83-31.5 156T763-197q-54 54-127 85.5T480-80Zm0-80q134 0 227-93t93-227q0-134-93-227t-227-93q-134 0-227 93t-93 227q0 134 93 227t227 93Zm0-320Z"/></symbol><symbol id="stop_circle" viewBox="0 -960 960 960"><path d="M320-320h320v-320H320v320ZM480-80q-83 0-156-31.5T197-197q-54-54-85.5-127T80-480q0-83 31.5-156T197-763q54-54 127-85.5T480-880q83 0 156 31.5T763-763q54 54 85.5 127T880-480q0 83-31.5 156T763-197q-54 54-127 85.5T480-80Zm0-80q134 0 227-93t93-227q0-134-93-227t-227-93q-134 0-227 93t-93 227q0 134 93 227t227 93Zm0-320Z"/></symbol><symbol id="pause_circle" viewBox="0 -960 960 960"><path d="M360-320h80v-320h-80v320Zm160 0h80v-320h-80v320ZM480-80q-83 0-156-31.5T197-197q-54-54-85.5-127T80-480q0-83 31.5-156T197-763q54-54 127-85.5T480-880q83 0 156 31.5T763-763q54 54 85.5 127T880-480q0 83-31.5 156T763-197q-54 54-127 85.5T480-80Zm0-80q134 0 227-93t93-227q0-134-93-227t-227-93q-134 0-227 93t-93 227q0 134 93 227t227 93Zm0-320Z"/></symbol><symbol id="play_arrow" viewBox="0 -960 960 960"><path d="M320-200v-560l440 280-440 280Zm80-280Zm0 134 210-134-210-134v268Z"/></symbol><symbol id="pause" viewBox="0 -960 960 960"><path d="M520-200v-560h240v560H520Zm-320 0v-560h240v560H200Zm400-80h80v-400h-80v400Zm-320 0h80v-400h-80v400Zm0-400v400-400Zm320 0v400-400Z"/></symbol><symbol id="block" viewBox="0 -960 960 960"><path d="M480-80q-83 0-156-31.5T197-197q-54-54-85.5-127T80-480q0-83 31.5-156T197-763q54-54 127-85.5T480-880q83 0 156 31.5T763-763q54 54 85.5 127T880-480q0 83-31.5 156T763-197q-54 54-127 85.5T480-80Zm0-80q54 0 104-17.5t92-50.5L228-676q-33 42-50.5 92T160-480q0 134 93 227t227 93Zm252-124q33-42 50.5-92T800-480q0-134-93-227t-227-93q-54 0-104 17.5T284-732l448 448Z"/></symbol><symbol id="playlist_add" viewBox="0 -960 960 960"><path d="M120-320v-80h280v80H120Zm0-160v-80h440v80H120Zm0-160v-80h440v80H120Zm520 480v-160H480v-80h160v-160h80v160h160v80H720v160h-80Z"/></symbol><symbol id="playlist_play" viewBox="0 -960 960 960"><path d="M120-320v-80h320v80H120Zm0-160v-80h480v80H120Zm0-160v-80h480v80H120Zm520 520v-320l240 160-240 160Z"/></symbol><symbol id="skip_previous" viewBox="0 -960 960 960"><path d="M220-240v-480h80v480h-80Zm520 0L380-480l360-240v480Zm-80-240Zm0 90v-180l-136 90 136 90Z"/></symbol><symbol id="skip_next" viewBox="0 -960 960 960"><path d="M660-240v-480h80v480h-80Zm-440 0v-480l360 240-360 240Zm80-240Zm0 90 136-90-136-90v180Z"/></symbol><symbol id="shuffle" viewBox="0 -960 960 960"><path d="M560-160v-80h104L537-367l57-57 126 126v-102h80v240H560Zm-344 0-56-56 504-504H560v-80h240v240h-80v-104L216-160Zm151-377L160-744l56-56 207 207-56 56Z"/></symbol><symbol id="repeat" viewBox="0 -960 960 960"><path d="M280-80 120-240l160-160 56 58-62 62h406v-160h80v240H274l62 62-56 58Zm-80-440v-240h486l-62-62 56-58 160 160-160 160-56-58 62-62H280v160h-80Z"/></symbol><symbol id="volume_off" viewBox="0 -960 960 960"><path d="M792-56 671-177q-25 16-53 27.5T560-131v-82q14-5 27.5-10t25.5-12L480-368v208L280-360H120v-240h128L56-792l56-56 736 736-56 56Zm-8-232-58-58q17-31 25.5-65t8.5-70q0-94-55-168T560-749v-82q124 28 202 125.5T840-481q0 53-14.5 102T784-288ZM650-422l-90-90v-130q47 22 73.5 66t26.5 96q0 15-2.5 29.5T650-422ZM480-592 376-696l104-104v208Zm-80 238v-94l-72-72H200v80h114l86 86Zm-36-130Z"/></symbol><symbol id="volume_mute" viewBox="0 -960 960 960"><path d="M280-360v-240h160l200-200v640L440-360H280Zm80-80h114l86 86v-252l-86 86H360v80Zm100-40Z"/></symbol><symbol id="volume_down" viewBox="0 -960 960 960"><path d="M200-360v-240h160l200-200v640L360-360H200Zm440 40v-322q45 21 72.5 65t27.5 97q0 53-27.5 96T640-320ZM480-606l-86 86H280v80h114l86 86v-252ZM380-480Z"/></symbol><symbol id="volume_up" viewBox="0 -960 960 960"><path d="M560-131v-82q90-26 145-100t55-168q0-94-55-168T560-749v-82q124 28 202 125.5T840-481q0 127-78 224.5T560-131ZM120-360v-240h160l200-200v640L280-360H120Zm440 40v-322q47 22 73.5 66t26.5 96q0 51-26.5 94.5T560-320ZM400-606l-86 86H200v80h114l86 86v-252ZM300-480Z"/></symbol><symbol id="queue_music" viewBox="0 -960 960 960"><path d="M640-160q-50 0-85-35t-35-85q0-50 35-85t85-35q11 0 21 1.5t19 6.5v-328h200v80H760v360q0 50-35 85t-85 35ZM120-320v-80h320v80H120Zm0-160v-80h480v80H120Zm0-160v-80h480v80H120Z"/></symbol><symbol id="featured_play_list" viewBox="0 -960 960 960"><path d="M240-440h360v-80H240v80Zm0-120h360v-80H240v80Zm-80 400q-33 0-56.5-23.5T80-240v-480q0-33 23.5-56.5T160-800h640q33 0 56.5 23.5T880-720v480q0 33-23.5 56.5T800-160H160Zm0-80h640v-480H160v480Zm0 0v-480 480Z"/></symbol><symbol id="video_library" viewBox="0 -960 960 960"><path d="m460-380 280-180-280-180v360ZM320-240q-33 0-56.5-23.5T240-320v-480q0-33 23.5-56.5T320-880h480q33 0 56.5 23.5T880-800v480q0 33-23.5 56.5T800-240H320Zm0-80h480v-480H320v480ZM160-80q-33 0-56.5-23.5T80-160v-560h80v560h560v80H160Zm160-720v480-480Z"/></symbol><symbol id="audio_file" viewBox="0 -960 960 960"><path d="M430-200q38 0 64-26t26-64v-150h120v-80H480v155q-11-8-23.5-11.5T430-380q-38 0-64 26t-26 64q0 38 26 64t64 26ZM240-80q-33 0-56.5-23.5T160-160v-640q0-33 23.5-56.5T240-880h320l240 240v480q0 33-23.5 56.5T720-80H240Zm280-520v-200H240v640h480v-440H520ZM240-800v200-200 640-640Z"/></symbol><symbol id="video_file" viewBox="0 -960 960 960"><path d="M360-240h160q17 0 28.5-11.5T560-280v-40l80 42v-164l-80 42v-40q0-17-11.5-28.5T520-480H360q-17 0-28.5 11.5T320-440v160q0 17 11.5 28.5T360-240ZM240-80q-33 0-56.5-23.5T160-160v-640q0-33 23.5-56.5T240-880h320l240 240v480q0 33-23.5 56.5T720-80H240Zm280-520v-200H240v640h480v-440H520ZM240-800v200-200 640-640Z"/></symbol><symbol id="album" viewBox="0 -960 960 960"><path d="M480-300q75 0 127.5-52.5T660-480q0-75-52.5-127.5T480-660q-75 0-127.5 52.5T300-480q0 75 52.5 127.5T480-300Zm0-140q-17 0-28.5-11.5T440-480q0-17 11.5-28.5T480-520q17 0 28.5 11.5T520-480q0 17-11.5 28.5T480-440Zm0 360q-83 0-156-31.5T197-197q-54-54-85.5-127T80-480q0-83 31.5-156T197-763q54-54 127-85.5T480-880q83 0 156 31.5T763-763q54 54 85.5 127T880-480q0 83-31.5 156T763-197q-54 54-127 85.5T480-80Zm0-80q134 0 227-93t93-227q0-134-93-227t-227-93q-134 0-227 93t-93 227q0 134 93 227t227 93Zm0-320Z"/></symbol><symbol id="movie" viewBox="0 -960 960 960"><path d="m160-800 80 160h120l-80-160h80l80 160h120l-80-160h80l80 160h120l-80-160h120q33 0 56.5 23.5T880-720v480q0 33-23.5 56.5T800-160H160q-33 0-56.5-23.5T80-240v-480q0-33 23.5-56.5T160-800Zm0 240v320h640v-320H160Zm0 0v320-320Z"/></symbol><symbol id="music_note" viewBox="0 -960 960 960"><path d="M400-120q-66 0-113-47t-47-113q0-66 47-113t113-47q23 0 42.5 5.5T480-418v-422h240v160H560v400q0 66-47 113t-113 47Z"/></symbol><symbol id="contrast" viewBox="0 -960 960 960"><path d="M480-80q-83 0-156-31.5T197-197q-54-54-85.5-127T80-480q0-83 31.5-156T197-763q54-54 127-85.5T480-880q83 0 156 31.5T763-763q54 54 85.5 127T880-480q0 83-31.5 156T763-197q-54 54-127 85.5T480-80Zm40-83q119-15 199.5-104.5T800-480q0-123-80.5-212.5T520-797v634Z"/></symbol><symbol id="star_rate" viewBox="0 -960 960 960"><path d="m384-334 96-74 96 74-36-122 90-64H518l-38-124-38 124H330l90 64-36 122ZM233-120l93-304L80-600h304l96-320 96 320h304L634-424l93 304-247-188-247 188Zm247-369Z"/></symbol><symbol id="star_rate_fill1" viewBox="0 -960 960 960"><path d="m233-120 93-304L80-600h304l96-320 96 320h304L634-424l93 304-247-188-247 188Z"/></symbol><symbol id="podcasts" viewBox="0 -960 960 960"><path d="M440-80v-331q-18-11-29-28.5T400-480q0-33 23.5-56.5T480-560q33 0 56.5 23.5T560-480q0 23-11 41t-29 28v331h-80ZM204-190q-57-55-90.5-129.5T80-480q0-83 31.5-156T197-763q54-54 127-85.5T480-880q83 0 156 31.5T763-763q54 54 85.5 127T880-480q0 86-33.5 161T756-190l-56-56q46-44 73-104.5T800-480q0-134-93-227t-227-93q-134 0-227 93t-93 227q0 69 27 129t74 104l-57 57Zm113-113q-35-33-56-78.5T240-480q0-100 70-170t170-70q100 0 170 70t70 170q0 53-21 99t-56 78l-57-57q25-23 39.5-54t14.5-66q0-66-47-113t-113-47q-66 0-113 47t-47 113q0 36 14.5 66.5T374-360l-57 57Z"/></symbol><symbol id="feed" viewBox="0 -960 960 960"><path d="M200-120q-33 0-56.5-23.5T120-200v-560q0-33 23.5-56.5T200-840h440l200 200v440q0 33-23.5 56.5T760-120H200Zm0-80h560v-400H600v-160H200v560Zm80-80h400v-80H280v80Zm0-320h200v-80H280v80Zm0 160h400v-80H280v80Zm-80-320v160-160 560-560Z"/></symbol><symbol id="search" viewBox="0 -960 960 960"><path d="M784-120 532-372q-30 24-69 38t-83 14q-109 0-184.5-75.5T120-580q0-109 75.5-184.5T380-840q109 0 184.5 75.5T640-580q0 44-14 83t-38 69l252 252-56 56ZM380-400q75 0 127.5-52.5T560-580q0-75-52.5-127.5T380-760q-75 0-127.5 52.5T200-580q0 75 52.5 127.5T380-400Z"/></symbol></svg>
