<svg xmlns="http://www.w3.org/2000/svg" style="display:none;">
    <defs>
        <style>
            use { display: none; }
            use:target { display: inline; }
        </style>
    </defs>
    <symbol id="s-upnp-renderer" viewBox="0 0 640 512" fill="currentColor">
        <path d="M592 0H48A48 48 0 0 0 0 48v320a48 48 0 0 0 48 48h240v32H112a16 16 0 0 0-16 16v32a16 16 0 0 0 16 16h416a16 16 0 0 0 16-16v-32a16 16 0 0 0-16-16H352v-32h240a48 48 0 0 0 48-48V48a48 48 0 0 0-48-48zm-16 352H64V64h512z" />
    </symbol>
    <symbol id="s-upnp-server" viewBox="0 0 512 512" fill="currentColor">
        <path d="M480 160H32c-17.673 0-32-14.327-32-32V64c0-17.673 14.327-32 32-32h448c17.673 0 32 14.327 32 32v64c0 17.673-14.327 32-32 32zm-48-88c-13.255 0-24 10.745-24 24s10.745 24 24 24 24-10.745 24-24-10.745-24-24-24zm-64 0c-13.255 0-24 10.745-24 24s10.745 24 24 24 24-10.745 24-24-10.745-24-24-24zm112 248H32c-17.673 0-32-14.327-32-32v-64c0-17.673 14.327-32 32-32h448c17.673 0 32 14.327 32 32v64c0 17.673-14.327 32-32 32zm-48-88c-13.255 0-24 10.745-24 24s10.745 24 24 24 24-10.745 24-24-10.745-24-24-24zm-64 0c-13.255 0-24 10.745-24 24s10.745 24 24 24 24-10.745 24-24-10.745-24-24-24zm112 248H32c-17.673 0-32-14.327-32-32v-64c0-17.673 14.327-32 32-32h448c17.673 0 32 14.327 32 32v64c0 17.673-14.327 32-32 32zm-48-88c-13.255 0-24 10.745-24 24s10.745 24 24 24 24-10.745 24-24-10.745-24-24-24zm-64 0c-13.255 0-24 10.745-24 24s10.745 24 24 24 24-10.745 24-24-10.745-24-24-24z" />
    </symbol>
    <symbol id="s-music-player" viewBox="0 0 512 512" fill="currentColor">
        <path d="M470.38 1.51L150.41 96A32 32 0 0 0 128 126.51v261.41A139 139 0 0 0 96 384c-53 0-96 28.66-96 64s43 64 96 64 96-28.66 96-64V214.32l256-75v184.61a138.4 138.4 0 0 0-32-3.93c-53 0-96 28.66-96 64s43 64 96 64 96-28.65 96-64V32a32 32 0 0 0-41.62-30.49z" />
    </symbol>
    <symbol id="s-file-audio" viewBox="0 0 384 512" fill="currentColor">
        <path d="M224 136V0H24C10.7 0 0 10.7 0 24v464c0 13.3 10.7 24 24 24h336c13.3 0 24-10.7 24-24V160H248c-13.2 0-24-10.8-24-24zm-64 268c0 10.7-12.9 16-20.5 8.5L104 376H76c-6.6 0-12-5.4-12-12v-56c0-6.6 5.4-12 12-12h28l35.5-36.5c7.6-7.6 20.5-2.2 20.5 8.5v136zm33.2-47.6c9.1-9.3 9.1-24.1 0-33.4-22.1-22.8 12.2-56.2 34.4-33.5 27.2 27.9 27.2 72.4 0 100.4-21.8 22.3-56.9-10.4-34.4-33.5zm86-117.1c54.4 55.9 54.4 144.8 0 200.8-21.8 22.4-57-10.3-34.4-33.5 36.2-37.2 36.3-96.5 0-133.8-22.1-22.8 12.3-56.3 34.4-33.5zM384 121.9v6.1H256V0h6.1c6.4 0 12.5 2.5 17 7l97.9 98c4.5 4.5 7 10.6 7 16.9z" />
    </symbol>
    <symbol id="s-file-video" viewBox="0 0 384 512" fill="currentColor">
        <path d="M384 121.941V128H256V0h6.059c6.365 0 12.47 2.529 16.971 7.029l97.941 97.941A24.005 24.005 0 0 1 384 121.941zM224 136V0H24C10.745 0 0 10.745 0 24v464c0 13.255 10.745 24 24 24h336c13.255 0 24-10.745 24-24V160H248c-13.2 0-24-10.8-24-24zm96 144.016v111.963c0 21.445-25.943 31.998-40.971 16.971L224 353.941V392c0 13.255-10.745 24-24 24H88c-13.255 0-24-10.745-24-24V280c0-13.255 10.745-24 24-24h112c13.255 0 24 10.745 24 24v38.059l55.029-55.013c15.011-15.01 40.971-4.491 40.971 16.97z" />
    </symbol>
    <symbol id="s-folder" viewBox="0 0 512 512" fill="currentColor">
        <path d="M464 128H272l-64-64H48C21.49 64 0 85.49 0 112v288c0 26.51 21.49 48 48 48h416c26.51 0 48-21.49 48-48V176c0-26.51-21.49-48-48-48z" />
    </symbol>
    <use id="upnp-server" href="#s-upnp-server" />
    <use id="upnp-renderer" href="#s-upnp-renderer" />
    <use id="music-player" href="#s-music-player" />
    <use id="file-audio" href="#s-file-audio" />
    <use id="file-video" href="#s-file-video" />
    <use id="folder" href="#s-folder" />
</svg>